G04 Layer_Color=32896*
%FSLAX25Y25*%
%MOIN*%
G70*
G01*
G75*
%ADD17C,0.01000*%
%ADD24C,0.00984*%
%ADD25C,0.02000*%
%ADD26C,0.00787*%
%ADD27C,0.00600*%
%ADD28C,0.00800*%
D17*
X15501Y-24501D02*
X16001Y-24001D01*
X17000D01*
X17500Y-24501D01*
Y-26500D01*
X17000Y-27000D01*
X16001D01*
X15501Y-26500D01*
X12502Y-27000D02*
X14501D01*
X12502Y-25001D01*
Y-24501D01*
X13001Y-24001D01*
X14001D01*
X14501Y-24501D01*
X5334Y26332D02*
X6001Y26999D01*
X7333D01*
X8000Y26332D01*
Y23666D01*
X7333Y23000D01*
X6001D01*
X5334Y23666D01*
X1335Y26999D02*
X2668Y26332D01*
X4001Y24999D01*
Y23666D01*
X3335Y23000D01*
X2002D01*
X1335Y23666D01*
Y24333D01*
X2002Y24999D01*
X4001D01*
X23501Y9999D02*
X24001Y10499D01*
X25000D01*
X25500Y9999D01*
Y8000D01*
X25000Y7500D01*
X24001D01*
X23501Y8000D01*
X22501Y10499D02*
X20502D01*
Y9999D01*
X22501Y8000D01*
Y7500D01*
X32000Y-36500D02*
Y-32501D01*
X30001D01*
X29334Y-33168D01*
Y-34501D01*
X30001Y-35167D01*
X32000D01*
X30667D02*
X29334Y-36500D01*
X28001D02*
X26668D01*
X27335D01*
Y-32501D01*
X28001Y-33168D01*
X35000Y-2500D02*
Y499D01*
X33500D01*
X33001Y-1D01*
Y-1001D01*
X33500Y-1500D01*
X35000D01*
X34000D02*
X33001Y-2500D01*
X32001Y-1D02*
X31501Y499D01*
X30501D01*
X30002Y-1D01*
Y-501D01*
X30501Y-1001D01*
X31001D01*
X30501D01*
X30002Y-1500D01*
Y-2000D01*
X30501Y-2500D01*
X31501D01*
X32001Y-2000D01*
X-8499Y-5002D02*
X-7499Y-4002D01*
X-5500D01*
X-4500Y-5002D01*
Y-6001D01*
X-5500Y-7001D01*
X-7499D01*
X-8499Y-8001D01*
Y-9000D01*
X-7499Y-10000D01*
X-5500D01*
X-4500Y-9000D01*
X-10498Y-10000D02*
X-12497D01*
X-11498D01*
Y-4002D01*
X-10498Y-5002D01*
X33001Y-4001D02*
X33500Y-3501D01*
X34500D01*
X35000Y-4001D01*
Y-6000D01*
X34500Y-6500D01*
X33500D01*
X33001Y-6000D01*
X32001Y-4001D02*
X31501Y-3501D01*
X30501D01*
X30002Y-4001D01*
Y-4501D01*
X30501Y-5001D01*
X30002Y-5500D01*
Y-6000D01*
X30501Y-6500D01*
X31501D01*
X32001Y-6000D01*
Y-5500D01*
X31501Y-5001D01*
X32001Y-4501D01*
Y-4001D01*
X31501Y-5001D02*
X30501D01*
X25001Y32999D02*
X25501Y33499D01*
X26500D01*
X27000Y32999D01*
Y31000D01*
X26500Y30500D01*
X25501D01*
X25001Y31000D01*
X24001Y30500D02*
X23001D01*
X23501D01*
Y33499D01*
X24001Y32999D01*
X21502D02*
X21002Y33499D01*
X20002D01*
X19502Y32999D01*
Y31000D01*
X20002Y30500D01*
X21002D01*
X21502Y31000D01*
Y32999D01*
X8000Y-21000D02*
Y-18001D01*
X6500D01*
X6001Y-18501D01*
Y-19500D01*
X6500Y-20000D01*
X8000D01*
X7000D02*
X6001Y-21000D01*
X3002D02*
X5001D01*
X3002Y-19001D01*
Y-18501D01*
X3501Y-18001D01*
X4501D01*
X5001Y-18501D01*
X36001Y-16501D02*
X36500Y-16001D01*
X37500D01*
X38000Y-16501D01*
Y-18500D01*
X37500Y-19000D01*
X36500D01*
X36001Y-18500D01*
X33002Y-19000D02*
X35001D01*
X33002Y-17001D01*
Y-16501D01*
X33501Y-16001D01*
X34501D01*
X35001Y-16501D01*
X32002D02*
X31502Y-16001D01*
X30502D01*
X30003Y-16501D01*
Y-17001D01*
X30502Y-17501D01*
X31002D01*
X30502D01*
X30003Y-18000D01*
Y-18500D01*
X30502Y-19000D01*
X31502D01*
X32002Y-18500D01*
X38000Y20000D02*
X35001D01*
Y18500D01*
X35501Y18001D01*
X36500D01*
X37000Y18500D01*
Y20000D01*
Y19000D02*
X38000Y18001D01*
Y15002D02*
Y17001D01*
X36001Y15002D01*
X35501D01*
X35001Y15501D01*
Y16501D01*
X35501Y17001D01*
Y14002D02*
X35001Y13502D01*
Y12502D01*
X35501Y12003D01*
X37500D01*
X38000Y12502D01*
Y13502D01*
X37500Y14002D01*
X35501D01*
X48000Y-10000D02*
Y-7001D01*
X46501D01*
X46001Y-7501D01*
Y-8501D01*
X46501Y-9000D01*
X48000D01*
X47000D02*
X46001Y-10000D01*
X43002D02*
X45001D01*
X43002Y-8001D01*
Y-7501D01*
X43501Y-7001D01*
X44501D01*
X45001Y-7501D01*
X42002D02*
X41502Y-7001D01*
X40502D01*
X40003Y-7501D01*
Y-8001D01*
X40502Y-8501D01*
X41002D01*
X40502D01*
X40003Y-9000D01*
Y-9500D01*
X40502Y-10000D01*
X41502D01*
X42002Y-9500D01*
X39501Y17001D02*
X39001Y17501D01*
Y18500D01*
X39501Y19000D01*
X41500D01*
X42000Y18500D01*
Y17501D01*
X41500Y17001D01*
X39501Y16001D02*
X39001Y15501D01*
Y14501D01*
X39501Y14002D01*
X40001D01*
X41000Y15001D01*
X41500D02*
X42000D01*
X27500Y-9500D02*
Y-7501D01*
X26500D01*
X26167Y-7834D01*
Y-8500D01*
X26500Y-8833D01*
X27500D01*
X26834D02*
X26167Y-9500D01*
X25501D02*
X24834D01*
X25167D01*
Y-8167D01*
X25501D01*
X23834Y-9500D02*
X22835D01*
X22502Y-9167D01*
X22835Y-8833D01*
X23501D01*
X23834Y-8500D01*
X23501Y-8167D01*
X22502D01*
X21502Y-9500D02*
X20835D01*
X20502Y-9167D01*
Y-8500D01*
X20835Y-8167D01*
X21502D01*
X21835Y-8500D01*
Y-9167D01*
X21502Y-9500D01*
X14500Y44998D02*
X10501D01*
X12501D01*
Y39000D01*
X8502Y44998D02*
X6503D01*
X7502D01*
Y39000D01*
X8502D01*
X6503D01*
X3504D02*
Y42999D01*
X1504Y44998D01*
X-495Y42999D01*
Y39000D01*
Y41999D01*
X3504D01*
X-2495Y42999D02*
X-4494Y39000D01*
X-6493Y42999D01*
X-8493Y43998D02*
X-9492Y44998D01*
X-11492D01*
X-12491Y43998D01*
Y42999D01*
X-11492Y41999D01*
X-10492D01*
X-11492D01*
X-12491Y40999D01*
Y40000D01*
X-11492Y39000D01*
X-9492D01*
X-8493Y40000D01*
X-14491Y44998D02*
Y39000D01*
X-17490D01*
X-18489Y40000D01*
Y40999D01*
X-17490Y41999D01*
X-14491D01*
X-17490D01*
X-18489Y42999D01*
Y43998D01*
X-17490Y44998D01*
X-14491D01*
D24*
X492Y-21063D02*
G03*
X492Y-21063I-492J0D01*
G01*
D25*
X-17550Y22500D02*
G03*
X-17550Y22500I-1500J0D01*
G01*
D26*
X14262Y-11759D02*
G03*
X11759Y-14262I-14262J11759D01*
G01*
X14277Y-11771D02*
X17618Y-15112D01*
X15112Y-17618D02*
X17618Y-15112D01*
X11771Y-14277D02*
X15112Y-17618D01*
D27*
X34500Y-15075D02*
Y-11925D01*
X29776Y-12256D02*
X39224D01*
X29776Y-6744D02*
X39224D01*
X39256Y827D02*
Y10276D01*
X33744Y827D02*
Y10276D01*
X9236Y-20397D02*
X18685D01*
X9236Y-14885D02*
X18685D01*
X24500Y-6075D02*
Y-2925D01*
Y2425D02*
Y5575D01*
X19776Y-3256D02*
X29224D01*
X19776Y2256D02*
X29224D01*
X13961Y-23215D02*
Y-20066D01*
X29744Y-31224D02*
Y-21776D01*
X35256Y-31224D02*
Y-21776D01*
X39425Y5500D02*
X42575D01*
X19276Y-10744D02*
X28724D01*
X19276Y-16256D02*
X28724D01*
D28*
X23500Y29500D02*
X32500D01*
X23500Y11500D02*
Y29500D01*
Y11500D02*
X32500D01*
Y29500D01*
X-3500Y28500D02*
Y37500D01*
Y28500D02*
X14500D01*
Y37500D01*
X-3500D02*
X14500D01*
M02*
