G04 Layer_Physical_Order=2*
G04 Layer_Color=16711680*
%FSLAX25Y25*%
%MOIN*%
G70*
G01*
G75*
%ADD10R,0.03347X0.03347*%
%ADD12R,0.03347X0.03347*%
%ADD16R,0.06000X0.08000*%
%ADD17C,0.01000*%
%ADD18C,0.09842*%
%ADD19R,0.05512X0.05512*%
%ADD20C,0.05512*%
%ADD21C,0.02756*%
%ADD22C,0.02402*%
%ADD23R,0.08000X0.06000*%
G36*
X5834Y49294D02*
X9684Y48684D01*
X13474Y47775D01*
X17181Y46570D01*
X20782Y45079D01*
X24254Y43309D01*
X27577Y41273D01*
X30731Y38982D01*
X33694Y36450D01*
X36450Y33694D01*
X38982Y30731D01*
X41273Y27577D01*
X43309Y24254D01*
X45079Y20782D01*
X46570Y17181D01*
X47775Y13474D01*
X48684Y9684D01*
X49294Y5834D01*
X49600Y1949D01*
Y-1949D01*
X49566Y-2381D01*
X49116Y-2599D01*
X48859Y-2427D01*
X48500Y-2356D01*
Y-4500D01*
Y-6644D01*
X48665Y-6612D01*
X49117Y-6956D01*
X48684Y-9684D01*
X47775Y-13474D01*
X46570Y-17181D01*
X45079Y-20782D01*
X43309Y-24254D01*
X41273Y-27578D01*
X38982Y-30731D01*
X36450Y-33694D01*
X33694Y-36450D01*
X30731Y-38982D01*
X27577Y-41273D01*
X24254Y-43309D01*
X20782Y-45079D01*
X17181Y-46570D01*
X13474Y-47775D01*
X9684Y-48684D01*
X5834Y-49294D01*
X1949Y-49600D01*
X-1949D01*
X-5834Y-49294D01*
X-9684Y-48684D01*
X-11360Y-48282D01*
X-11342Y-47772D01*
X-10858Y-47692D01*
X-9766Y-47282D01*
X-8775Y-46666D01*
X-7924Y-45868D01*
X-7537Y-45329D01*
X-12647Y-42378D01*
X-17758Y-39428D01*
X-18032Y-40033D01*
X-18296Y-41169D01*
X-18335Y-42334D01*
X-18145Y-43485D01*
X-17734Y-44577D01*
X-17118Y-45567D01*
X-16448Y-46283D01*
X-16725Y-46718D01*
X-17181Y-46570D01*
X-20782Y-45079D01*
X-24254Y-43309D01*
X-27578Y-41273D01*
X-30731Y-38982D01*
X-31758Y-38104D01*
X-31487Y-37678D01*
X-31358Y-37737D01*
X-30222Y-38002D01*
X-29056Y-38040D01*
X-27905Y-37850D01*
X-26814Y-37439D01*
X-25823Y-36823D01*
X-24972Y-36026D01*
X-24585Y-35486D01*
X-29695Y-32536D01*
X-34805Y-29585D01*
X-35079Y-30190D01*
X-35344Y-31326D01*
X-35382Y-32492D01*
X-35192Y-33643D01*
X-34828Y-34609D01*
X-35258Y-34887D01*
X-36450Y-33694D01*
X-38982Y-30731D01*
X-41273Y-27578D01*
X-43309Y-24254D01*
X-45079Y-20782D01*
X-46570Y-17181D01*
X-47775Y-13474D01*
X-48684Y-9684D01*
X-49294Y-5834D01*
X-49600Y-1949D01*
Y1949D01*
X-49294Y5834D01*
X-48684Y9684D01*
X-47775Y13474D01*
X-46570Y17181D01*
X-45079Y20782D01*
X-43309Y24254D01*
X-41273Y27577D01*
X-38982Y30731D01*
X-36450Y33694D01*
X-33694Y36450D01*
X-30731Y38982D01*
X-27578Y41273D01*
X-24254Y43309D01*
X-20782Y45079D01*
X-17181Y46570D01*
X-13474Y47775D01*
X-9684Y48684D01*
X-5834Y49294D01*
X-1949Y49600D01*
X1949D01*
X5834Y49294D01*
D02*
G37*
%LPC*%
G36*
X5500Y-29000D02*
X3856D01*
X3927Y-29359D01*
X4413Y-30087D01*
X5141Y-30573D01*
X5500Y-30644D01*
Y-29000D01*
D02*
G37*
G36*
X11500D02*
X9856D01*
X9927Y-29359D01*
X10413Y-30087D01*
X11141Y-30573D01*
X11500Y-30644D01*
Y-29000D01*
D02*
G37*
G36*
X8144D02*
X6500D01*
Y-30644D01*
X6859Y-30573D01*
X7587Y-30087D01*
X8073Y-29359D01*
X8144Y-29000D01*
D02*
G37*
G36*
X-16389Y-22563D02*
X-17540Y-22753D01*
X-18632Y-23164D01*
X-19622Y-23780D01*
X-20473Y-24577D01*
X-21153Y-25525D01*
X-21634Y-26588D01*
X-21899Y-27723D01*
X-21937Y-28889D01*
X-21747Y-30040D01*
X-21336Y-31132D01*
X-20720Y-32122D01*
X-19923Y-32973D01*
X-18975Y-33653D01*
X-17912Y-34134D01*
X-16777Y-34399D01*
X-15611Y-34437D01*
X-14460Y-34247D01*
X-13368Y-33836D01*
X-13034Y-33629D01*
X-12581Y-34081D01*
X-12085Y-34413D01*
X-11500Y-34529D01*
X26288D01*
X26874Y-34413D01*
X27370Y-34081D01*
X29505Y-31946D01*
X30106Y-31945D01*
X30437Y-32166D01*
X30827Y-32244D01*
X34173D01*
X34563Y-32166D01*
X34894Y-31945D01*
X35115Y-31615D01*
X35193Y-31224D01*
Y-27878D01*
X35115Y-27488D01*
X34894Y-27157D01*
X34563Y-26936D01*
X34173Y-26858D01*
X30827D01*
X30437Y-26936D01*
X30106Y-27157D01*
X29885Y-27488D01*
X29807Y-27878D01*
Y-28471D01*
X29288D01*
X28703Y-28587D01*
X28207Y-28919D01*
X25655Y-31471D01*
X-10384D01*
X-10655Y-31050D01*
X-10366Y-30413D01*
X-10101Y-29277D01*
X-10063Y-28111D01*
X-10253Y-26960D01*
X-10664Y-25868D01*
X-11280Y-24878D01*
X-12077Y-24027D01*
X-13025Y-23347D01*
X-14087Y-22866D01*
X-15223Y-22601D01*
X-16389Y-22563D01*
D02*
G37*
G36*
X-26062Y-27242D02*
X-28762Y-31920D01*
X-24085Y-34620D01*
X-23811Y-34015D01*
X-23546Y-32879D01*
X-23508Y-31714D01*
X-23698Y-30563D01*
X-24109Y-29471D01*
X-24725Y-28480D01*
X-25522Y-27629D01*
X-26062Y-27242D01*
D02*
G37*
G36*
X-2372Y-25580D02*
X-5072Y-30257D01*
X-4467Y-30532D01*
X-3331Y-30796D01*
X-2166Y-30835D01*
X-1015Y-30645D01*
X77Y-30234D01*
X1067Y-29618D01*
X1919Y-28820D01*
X2305Y-28281D01*
X-2372Y-25580D01*
D02*
G37*
G36*
X-29834Y-26165D02*
X-30985Y-26355D01*
X-32077Y-26766D01*
X-33067Y-27382D01*
X-33919Y-28179D01*
X-34305Y-28719D01*
X-29628Y-31420D01*
X-26928Y-26743D01*
X-27533Y-26468D01*
X-28669Y-26204D01*
X-29834Y-26165D01*
D02*
G37*
G36*
X14144Y-29000D02*
X12500D01*
Y-30644D01*
X12859Y-30573D01*
X13587Y-30087D01*
X14073Y-29359D01*
X14144Y-29000D01*
D02*
G37*
G36*
X18500Y-26356D02*
X18141Y-26427D01*
X17413Y-26913D01*
X16927Y-27641D01*
X16856Y-28000D01*
X18500D01*
Y-26356D01*
D02*
G37*
G36*
X12500D02*
Y-28000D01*
X14144D01*
X14073Y-27641D01*
X13587Y-26913D01*
X12859Y-26427D01*
X12500Y-26356D01*
D02*
G37*
G36*
X-19420Y-15738D02*
X-22120Y-20415D01*
X-21515Y-20689D01*
X-20379Y-20954D01*
X-19214Y-20992D01*
X-18063Y-20802D01*
X-16971Y-20391D01*
X-15980Y-19775D01*
X-15129Y-18978D01*
X-14742Y-18438D01*
X-19420Y-15738D01*
D02*
G37*
G36*
X19500Y-26356D02*
Y-28000D01*
X21144D01*
X21073Y-27641D01*
X20587Y-26913D01*
X19859Y-26427D01*
X19500Y-26356D01*
D02*
G37*
G36*
X21144Y-29000D02*
X19500D01*
Y-30644D01*
X19859Y-30573D01*
X20587Y-30087D01*
X21073Y-29359D01*
X21144Y-29000D01*
D02*
G37*
G36*
X18500D02*
X16856D01*
X16927Y-29359D01*
X17413Y-30087D01*
X18141Y-30573D01*
X18500Y-30644D01*
Y-29000D01*
D02*
G37*
G36*
X11500Y-26356D02*
X11141Y-26427D01*
X10413Y-26913D01*
X9927Y-27641D01*
X9856Y-28000D01*
X11500D01*
Y-26356D01*
D02*
G37*
G36*
X-7915Y-22380D02*
X-8189Y-22985D01*
X-8454Y-24121D01*
X-8492Y-25286D01*
X-8302Y-26437D01*
X-7891Y-27529D01*
X-7275Y-28519D01*
X-6478Y-29371D01*
X-5938Y-29757D01*
X-3238Y-25080D01*
X-7915Y-22380D01*
D02*
G37*
G36*
X19500Y-35856D02*
Y-37500D01*
X21144D01*
X21073Y-37141D01*
X20587Y-36413D01*
X19859Y-35927D01*
X19500Y-35856D01*
D02*
G37*
G36*
X7144Y-38500D02*
X5500D01*
Y-40144D01*
X5859Y-40073D01*
X6587Y-39587D01*
X7073Y-38859D01*
X7144Y-38500D01*
D02*
G37*
G36*
X4500D02*
X2856D01*
X2927Y-38859D01*
X3413Y-39587D01*
X4141Y-40073D01*
X4500Y-40144D01*
Y-38500D01*
D02*
G37*
G36*
X14144D02*
X12500D01*
Y-40144D01*
X12859Y-40073D01*
X13587Y-39587D01*
X14073Y-38859D01*
X14144Y-38500D01*
D02*
G37*
G36*
X11500D02*
X9856D01*
X9927Y-38859D01*
X10413Y-39587D01*
X11141Y-40073D01*
X11500Y-40144D01*
Y-38500D01*
D02*
G37*
G36*
X-12787Y-36008D02*
X-13937Y-36198D01*
X-15029Y-36609D01*
X-16019Y-37225D01*
X-16871Y-38022D01*
X-16993Y-38193D01*
X-17181Y-38319D01*
X-17320Y-38526D01*
X-12580Y-41262D01*
X-9880Y-36585D01*
X-10485Y-36311D01*
X-11621Y-36046D01*
X-12787Y-36008D01*
D02*
G37*
G36*
X-9014Y-37085D02*
X-11714Y-41762D01*
X-7037Y-44462D01*
X-6763Y-43858D01*
X-6498Y-42722D01*
X-6460Y-41556D01*
X-6650Y-40405D01*
X-7061Y-39314D01*
X-7677Y-38323D01*
X-8474Y-37472D01*
X-9014Y-37085D01*
D02*
G37*
G36*
X644Y-38500D02*
X-1000D01*
Y-40144D01*
X-641Y-40073D01*
X87Y-39587D01*
X573Y-38859D01*
X644Y-38500D01*
D02*
G37*
G36*
X-2000D02*
X-3644D01*
X-3573Y-38859D01*
X-3087Y-39587D01*
X-2359Y-40073D01*
X-2000Y-40144D01*
Y-38500D01*
D02*
G37*
G36*
X18500D02*
X16856D01*
X16927Y-38859D01*
X17413Y-39587D01*
X18141Y-40073D01*
X18500Y-40144D01*
Y-38500D01*
D02*
G37*
G36*
X11500Y-35856D02*
X11141Y-35927D01*
X10413Y-36413D01*
X9927Y-37141D01*
X9856Y-37500D01*
X11500D01*
Y-35856D01*
D02*
G37*
G36*
X5500D02*
Y-37500D01*
X7144D01*
X7073Y-37141D01*
X6587Y-36413D01*
X5859Y-35927D01*
X5500Y-35856D01*
D02*
G37*
G36*
X18500D02*
X18141Y-35927D01*
X17413Y-36413D01*
X16927Y-37141D01*
X16856Y-37500D01*
X18500D01*
Y-35856D01*
D02*
G37*
G36*
X12500D02*
Y-37500D01*
X14144D01*
X14073Y-37141D01*
X13587Y-36413D01*
X12859Y-35927D01*
X12500Y-35856D01*
D02*
G37*
G36*
X-2000D02*
X-2359Y-35927D01*
X-3087Y-36413D01*
X-3573Y-37141D01*
X-3644Y-37500D01*
X-2000D01*
Y-35856D01*
D02*
G37*
G36*
X21144Y-38500D02*
X19500D01*
Y-40144D01*
X19859Y-40073D01*
X20587Y-39587D01*
X21073Y-38859D01*
X21144Y-38500D01*
D02*
G37*
G36*
X4500Y-35856D02*
X4141Y-35927D01*
X3413Y-36413D01*
X2927Y-37141D01*
X2856Y-37500D01*
X4500D01*
Y-35856D01*
D02*
G37*
G36*
X-1000D02*
Y-37500D01*
X644D01*
X573Y-37141D01*
X87Y-36413D01*
X-641Y-35927D01*
X-1000Y-35856D01*
D02*
G37*
G36*
X-33856Y23000D02*
X-35500D01*
Y21356D01*
X-35141Y21427D01*
X-34413Y21913D01*
X-33927Y22641D01*
X-33856Y23000D01*
D02*
G37*
G36*
X-36500D02*
X-38144D01*
X-38073Y22641D01*
X-37587Y21913D01*
X-36859Y21427D01*
X-36500Y21356D01*
Y23000D01*
D02*
G37*
G36*
Y25644D02*
X-36859Y25573D01*
X-37587Y25087D01*
X-38073Y24359D01*
X-38144Y24000D01*
X-36500D01*
Y25644D01*
D02*
G37*
G36*
X6644Y42500D02*
X2356D01*
X2427Y42141D01*
X2913Y41413D01*
X3641Y40927D01*
X4132Y40829D01*
X4082Y40329D01*
X-11300D01*
X-11885Y40213D01*
X-12381Y39881D01*
X-28781Y23481D01*
X-29113Y22985D01*
X-29229Y22400D01*
Y-5000D01*
X-29113Y-5585D01*
X-28781Y-6081D01*
X-28285Y-6413D01*
X-27700Y-6529D01*
X-18134D01*
X-6581Y-18081D01*
X-6085Y-18413D01*
X-5500Y-18529D01*
X-3404D01*
X-3363Y-19029D01*
X-4095Y-19150D01*
X-5186Y-19561D01*
X-6177Y-20177D01*
X-7028Y-20974D01*
X-7415Y-21514D01*
X-2305Y-24464D01*
X2805Y-27415D01*
X3079Y-26810D01*
X3344Y-25674D01*
X3382Y-24508D01*
X3332Y-24202D01*
X3799Y-23962D01*
X4860Y-25023D01*
X4927Y-25359D01*
X5281Y-25889D01*
X5149Y-26398D01*
X5102Y-26453D01*
X4413Y-26913D01*
X3927Y-27641D01*
X3856Y-28000D01*
X8144D01*
X8073Y-27641D01*
X7719Y-27111D01*
X7851Y-26602D01*
X7898Y-26547D01*
X8587Y-26087D01*
X9073Y-25359D01*
X9244Y-24500D01*
X9721Y-24333D01*
X12582D01*
X12973Y-24256D01*
X13303Y-24035D01*
X13524Y-23704D01*
X13602Y-23314D01*
Y-21000D01*
X14319D01*
Y-23314D01*
X14396Y-23704D01*
X14617Y-24035D01*
X14948Y-24256D01*
X15338Y-24333D01*
X18685D01*
X19075Y-24256D01*
X19406Y-24035D01*
X19627Y-23704D01*
X19704Y-23314D01*
Y-19967D01*
X19639Y-19641D01*
X19704Y-19314D01*
Y-16193D01*
X22622D01*
X23012Y-16115D01*
X23343Y-15894D01*
X23564Y-15563D01*
X23642Y-15173D01*
Y-11827D01*
X23564Y-11437D01*
X23343Y-11106D01*
X23012Y-10885D01*
X22622Y-10807D01*
X19383D01*
X19344Y-10760D01*
X19173Y-9901D01*
X18687Y-9173D01*
X17959Y-8687D01*
X17100Y-8516D01*
X16886Y-8558D01*
X16500Y-8241D01*
Y-5529D01*
X18756D01*
Y-6173D01*
X18834Y-6563D01*
X19055Y-6894D01*
X19385Y-7115D01*
X19776Y-7193D01*
X23122D01*
X23512Y-7115D01*
X23843Y-6894D01*
X24064Y-6563D01*
X24142Y-6173D01*
Y-2827D01*
X24077Y-2500D01*
X24142Y-2173D01*
Y1173D01*
X24064Y1563D01*
X23939Y1750D01*
X24064Y1937D01*
X24142Y2327D01*
Y4725D01*
X24642Y4974D01*
X24858Y4810D01*
Y4500D01*
X27051D01*
Y7163D01*
X23933Y10281D01*
X23437Y10613D01*
X22851Y10729D01*
X9200D01*
X8615Y10613D01*
X8119Y10281D01*
X-634Y1529D01*
X-6568D01*
X-6719Y1894D01*
X-7321Y2679D01*
X-8106Y3281D01*
X-9020Y3659D01*
X-9500Y3723D01*
Y0D01*
Y-3723D01*
X-9020Y-3659D01*
X-8106Y-3281D01*
X-7321Y-2679D01*
X-6719Y-1894D01*
X-6568Y-1529D01*
X0D01*
X585Y-1413D01*
X1081Y-1081D01*
X9833Y7671D01*
X22218D01*
X22695Y7193D01*
X22488Y6693D01*
X19776D01*
X19385Y6615D01*
X19055Y6394D01*
X18834Y6063D01*
X18756Y5673D01*
Y2327D01*
X18834Y1937D01*
X18958Y1750D01*
X18834Y1563D01*
X18756Y1173D01*
Y-2173D01*
X18512Y-2471D01*
X8338D01*
X8214Y-2286D01*
X7428Y-1760D01*
X6500Y-1575D01*
X5572Y-1760D01*
X4786Y-2286D01*
X4260Y-3072D01*
X4075Y-4000D01*
X4260Y-4928D01*
X4786Y-5714D01*
X4326Y-6174D01*
X4326Y-10963D01*
X3826Y-11230D01*
X3776Y-11196D01*
Y-7244D01*
X3698Y-6854D01*
X3477Y-6523D01*
X3146Y-6302D01*
X2756Y-6225D01*
X-2756D01*
X-3146Y-6302D01*
X-3477Y-6523D01*
X-3698Y-6854D01*
X-3776Y-7244D01*
Y-12756D01*
X-3698Y-13146D01*
X-3477Y-13477D01*
X-3146Y-13698D01*
X-2756Y-13776D01*
X1613D01*
X4326Y-16489D01*
X4326Y-18010D01*
X3864Y-18201D01*
X2081Y-16419D01*
X1585Y-16087D01*
X1000Y-15971D01*
X634D01*
X581Y-15919D01*
X85Y-15587D01*
X-500Y-15471D01*
X-4866D01*
X-16419Y-3919D01*
X-16915Y-3587D01*
X-17500Y-3471D01*
X-26171D01*
Y21767D01*
X-10667Y37271D01*
X-4242D01*
X-4020Y37000D01*
Y33500D01*
X0D01*
Y32500D01*
X-4020D01*
Y29000D01*
X-3942Y28610D01*
X-3721Y28279D01*
X-3390Y28058D01*
X-3000Y27980D01*
X-1529D01*
Y27000D01*
X-1413Y26415D01*
X-1081Y25919D01*
X-81Y24919D01*
X415Y24587D01*
X1000Y24471D01*
X22980D01*
Y23000D01*
X23058Y22610D01*
X23279Y22279D01*
X23610Y22058D01*
X24000Y21980D01*
X27500D01*
Y26000D01*
Y30020D01*
X24000D01*
X23610Y29942D01*
X23279Y29721D01*
X23058Y29390D01*
X22980Y29000D01*
Y27529D01*
X14296D01*
X14246Y28029D01*
X14390Y28058D01*
X14721Y28279D01*
X14942Y28610D01*
X15020Y29000D01*
Y37000D01*
X14942Y37390D01*
X14721Y37721D01*
X14390Y37942D01*
X14000Y38020D01*
X12323D01*
X12081Y38381D01*
X10581Y39881D01*
X10085Y40213D01*
X9500Y40329D01*
X4918D01*
X4868Y40829D01*
X5359Y40927D01*
X6087Y41413D01*
X6573Y42141D01*
X6644Y42500D01*
D02*
G37*
G36*
X46000Y7644D02*
X45641Y7573D01*
X44913Y7087D01*
X44427Y6359D01*
X44356Y6000D01*
X46000D01*
Y7644D01*
D02*
G37*
G36*
X48644Y5000D02*
X47000D01*
Y3356D01*
X47359Y3427D01*
X48087Y3913D01*
X48573Y4641D01*
X48644Y5000D01*
D02*
G37*
G36*
X0Y13788D02*
X-981Y13659D01*
X-1894Y13281D01*
X-2679Y12679D01*
X-3281Y11894D01*
X-3659Y10981D01*
X-3788Y10000D01*
X-3659Y9020D01*
X-3281Y8106D01*
X-2679Y7321D01*
X-1894Y6719D01*
X-981Y6341D01*
X0Y6212D01*
X981Y6341D01*
X1894Y6719D01*
X2679Y7321D01*
X3281Y8106D01*
X3659Y9020D01*
X3788Y10000D01*
X3659Y10981D01*
X3281Y11894D01*
X2679Y12679D01*
X1894Y13281D01*
X981Y13659D01*
X0Y13788D01*
D02*
G37*
G36*
X47000Y7644D02*
Y6000D01*
X48644D01*
X48573Y6359D01*
X48087Y7087D01*
X47359Y7573D01*
X47000Y7644D01*
D02*
G37*
G36*
X-35500Y25644D02*
Y24000D01*
X-33856D01*
X-33927Y24359D01*
X-34413Y25087D01*
X-35141Y25573D01*
X-35500Y25644D01*
D02*
G37*
G36*
X31000Y33644D02*
Y32000D01*
X32644D01*
X32573Y32359D01*
X32087Y33087D01*
X31359Y33573D01*
X31000Y33644D01*
D02*
G37*
G36*
X30000D02*
X29641Y33573D01*
X28913Y33087D01*
X28427Y32359D01*
X28356Y32000D01*
X30000D01*
Y33644D01*
D02*
G37*
G36*
X5000Y45144D02*
Y43500D01*
X6644D01*
X6573Y43859D01*
X6087Y44587D01*
X5359Y45073D01*
X5000Y45144D01*
D02*
G37*
G36*
X4000D02*
X3641Y45073D01*
X2913Y44587D01*
X2427Y43859D01*
X2356Y43500D01*
X4000D01*
Y45144D01*
D02*
G37*
G36*
X-27856Y30500D02*
X-29500D01*
Y28856D01*
X-29141Y28927D01*
X-28413Y29413D01*
X-27927Y30141D01*
X-27856Y30500D01*
D02*
G37*
G36*
X-30500D02*
X-32144D01*
X-32073Y30141D01*
X-31587Y29413D01*
X-30859Y28927D01*
X-30500Y28856D01*
Y30500D01*
D02*
G37*
G36*
X-29500Y33144D02*
Y31500D01*
X-27856D01*
X-27927Y31859D01*
X-28413Y32587D01*
X-29141Y33073D01*
X-29500Y33144D01*
D02*
G37*
G36*
X-30500D02*
X-30859Y33073D01*
X-31587Y32587D01*
X-32073Y31859D01*
X-32144Y31500D01*
X-30500D01*
Y33144D01*
D02*
G37*
G36*
X-19992Y-9118D02*
X-21143Y-9308D01*
X-22234Y-9718D01*
X-23225Y-10334D01*
X-24076Y-11132D01*
X-24463Y-11671D01*
X-19786Y-14372D01*
X-17085Y-9695D01*
X-17690Y-9421D01*
X-18826Y-9156D01*
X-19992Y-9118D01*
D02*
G37*
G36*
X-39856Y-13500D02*
X-41500D01*
Y-15144D01*
X-41141Y-15073D01*
X-40413Y-14587D01*
X-39927Y-13859D01*
X-39856Y-13500D01*
D02*
G37*
G36*
X-41500Y-10856D02*
Y-12500D01*
X-39856D01*
X-39927Y-12141D01*
X-40413Y-11413D01*
X-41141Y-10927D01*
X-41500Y-10856D01*
D02*
G37*
G36*
X-42500D02*
X-42859Y-10927D01*
X-43587Y-11413D01*
X-44073Y-12141D01*
X-44144Y-12500D01*
X-42500D01*
Y-10856D01*
D02*
G37*
G36*
X-16219Y-10195D02*
X-18920Y-14872D01*
X-14243Y-17572D01*
X-13968Y-16967D01*
X-13704Y-15831D01*
X-13665Y-14666D01*
X-13855Y-13515D01*
X-14266Y-12423D01*
X-14882Y-11433D01*
X-15679Y-10581D01*
X-16219Y-10195D01*
D02*
G37*
G36*
X-24963Y-12537D02*
X-25237Y-13142D01*
X-25502Y-14278D01*
X-25540Y-15444D01*
X-25350Y-16595D01*
X-24939Y-17686D01*
X-24323Y-18677D01*
X-23526Y-19528D01*
X-22986Y-19915D01*
X-20286Y-15238D01*
X-24963Y-12537D01*
D02*
G37*
G36*
X-42500Y-13500D02*
X-44144D01*
X-44073Y-13859D01*
X-43587Y-14587D01*
X-42859Y-15073D01*
X-42500Y-15144D01*
Y-13500D01*
D02*
G37*
G36*
X30244Y-5000D02*
X28051D01*
Y-7193D01*
X28441D01*
X28783Y-7693D01*
X28756Y-7827D01*
Y-10781D01*
X28724Y-10807D01*
X25378D01*
X24988Y-10885D01*
X24657Y-11106D01*
X24436Y-11437D01*
X24358Y-11827D01*
Y-15173D01*
X24436Y-15563D01*
X24657Y-15894D01*
X24988Y-16115D01*
X25378Y-16193D01*
X28724D01*
X29115Y-16115D01*
X29250Y-16025D01*
X29385Y-16115D01*
X29776Y-16193D01*
X33122D01*
X33512Y-16115D01*
X33843Y-15894D01*
X34064Y-15563D01*
X34142Y-15173D01*
Y-11827D01*
X34077Y-11500D01*
X34142Y-11173D01*
Y-7827D01*
X34064Y-7437D01*
X33843Y-7106D01*
X33512Y-6885D01*
X33122Y-6807D01*
X30559D01*
X30217Y-6307D01*
X30244Y-6173D01*
Y-5000D01*
D02*
G37*
G36*
X27051D02*
X24858D01*
Y-6173D01*
X24936Y-6563D01*
X25157Y-6894D01*
X25488Y-7115D01*
X25878Y-7193D01*
X27051D01*
Y-5000D01*
D02*
G37*
G36*
X-45500Y2644D02*
X-45859Y2573D01*
X-46587Y2087D01*
X-47073Y1359D01*
X-47144Y1000D01*
X-45500D01*
Y2644D01*
D02*
G37*
G36*
X-10500Y3723D02*
X-10981Y3659D01*
X-11894Y3281D01*
X-12679Y2679D01*
X-13281Y1894D01*
X-13659Y981D01*
X-13723Y500D01*
X-10500D01*
Y3723D01*
D02*
G37*
G36*
X46000Y5000D02*
X44356D01*
X44427Y4641D01*
X44913Y3913D01*
X45641Y3427D01*
X46000Y3356D01*
Y5000D01*
D02*
G37*
G36*
X-44500Y2644D02*
Y1000D01*
X-42856D01*
X-42927Y1359D01*
X-43413Y2087D01*
X-44141Y2573D01*
X-44500Y2644D01*
D02*
G37*
G36*
X-10500Y-500D02*
X-13723D01*
X-13659Y-981D01*
X-13281Y-1894D01*
X-12679Y-2679D01*
X-11894Y-3281D01*
X-10981Y-3659D01*
X-10500Y-3723D01*
Y-500D01*
D02*
G37*
G36*
X-7800Y35925D02*
X-8728Y35740D01*
X-9514Y35214D01*
X-10040Y34428D01*
X-10225Y33500D01*
X-10040Y32572D01*
X-9514Y31786D01*
X-9329Y31662D01*
Y22463D01*
X-9213Y21878D01*
X-8881Y21381D01*
X-2419Y14919D01*
X-1922Y14587D01*
X-1337Y14471D01*
X11881D01*
X11960Y14072D01*
X12486Y13286D01*
X13272Y12760D01*
X14200Y12575D01*
X15128Y12760D01*
X15914Y13286D01*
X16038Y13471D01*
X20001D01*
X20124Y13286D01*
X20911Y12760D01*
X21839Y12575D01*
X22480Y12703D01*
X22980Y12347D01*
Y12000D01*
X23058Y11610D01*
X23279Y11279D01*
X23610Y11058D01*
X24000Y10980D01*
X29000D01*
Y8112D01*
X28051Y7163D01*
Y4000D01*
X27551D01*
Y3500D01*
X24858D01*
Y2327D01*
X24936Y1937D01*
X25061Y1750D01*
X24936Y1563D01*
X24858Y1173D01*
Y0D01*
X27551D01*
Y-1000D01*
X24858D01*
Y-2173D01*
X24923Y-2500D01*
X24858Y-2827D01*
Y-4000D01*
X30244D01*
Y-3000D01*
X37075D01*
X37260Y-3928D01*
X37786Y-4714D01*
X37971Y-4838D01*
Y-5866D01*
X37030Y-6807D01*
X35878D01*
X35488Y-6885D01*
X35157Y-7106D01*
X34936Y-7437D01*
X34858Y-7827D01*
Y-11173D01*
X34923Y-11500D01*
X34858Y-11827D01*
Y-15173D01*
X34936Y-15563D01*
X35157Y-15894D01*
X35488Y-16115D01*
X35878Y-16193D01*
X39224D01*
X39615Y-16115D01*
X39945Y-15894D01*
X40166Y-15563D01*
X40244Y-15173D01*
Y-13363D01*
X40744Y-13093D01*
X41000Y-13144D01*
Y-11000D01*
X42000D01*
Y-13144D01*
X42359Y-13073D01*
X42530Y-12959D01*
X42971Y-13195D01*
Y-14367D01*
X35679Y-21658D01*
X35137Y-21493D01*
X35115Y-21385D01*
X34894Y-21055D01*
X34563Y-20834D01*
X34173Y-20756D01*
X30827D01*
X30437Y-20834D01*
X30106Y-21055D01*
X29885Y-21385D01*
X29807Y-21776D01*
Y-25122D01*
X29885Y-25512D01*
X30106Y-25843D01*
X30437Y-26064D01*
X30827Y-26142D01*
X34173D01*
X34563Y-26064D01*
X34894Y-25843D01*
X35115Y-25512D01*
X35193Y-25122D01*
Y-24978D01*
X36051D01*
X36636Y-24862D01*
X37133Y-24530D01*
X45581Y-16081D01*
X45913Y-15585D01*
X46029Y-15000D01*
Y-6344D01*
X46529Y-6164D01*
X47141Y-6573D01*
X47500Y-6644D01*
Y-4500D01*
Y-2356D01*
X47141Y-2427D01*
X46529Y-2836D01*
X46029Y-2656D01*
Y0D01*
X45913Y585D01*
X45581Y1082D01*
X43693Y2970D01*
Y4122D01*
X43615Y4512D01*
X43394Y4843D01*
X43063Y5064D01*
X42673Y5142D01*
X39500D01*
Y5858D01*
X42673D01*
X43063Y5936D01*
X43394Y6157D01*
X43615Y6488D01*
X43693Y6878D01*
Y10213D01*
X43928Y10260D01*
X44714Y10786D01*
X45240Y11572D01*
X45425Y12500D01*
X45240Y13428D01*
X44714Y14214D01*
X43928Y14740D01*
X43000Y14924D01*
X42072Y14740D01*
X41286Y14214D01*
X40760Y13428D01*
X40576Y12500D01*
X40693Y11907D01*
X40030Y11244D01*
X39327D01*
X38937Y11166D01*
X38796Y11072D01*
X38781D01*
X38563Y11218D01*
X38173Y11295D01*
X35029D01*
Y25000D01*
X34913Y25585D01*
X34581Y26081D01*
X33581Y27081D01*
X33085Y27413D01*
X33020Y27426D01*
Y29000D01*
X32942Y29390D01*
X32721Y29721D01*
X32390Y29942D01*
X32281Y30205D01*
X32573Y30641D01*
X32644Y31000D01*
X28356D01*
X28427Y30641D01*
X28548Y30461D01*
X28500Y30371D01*
Y26000D01*
Y21980D01*
X31971D01*
Y19020D01*
X24000D01*
X23610Y18942D01*
X23279Y18721D01*
X23058Y18390D01*
X22980Y18000D01*
Y17653D01*
X22480Y17297D01*
X21839Y17424D01*
X20911Y17240D01*
X20124Y16714D01*
X20001Y16529D01*
X16038D01*
X15914Y16714D01*
X15128Y17240D01*
X14200Y17424D01*
X13867Y17358D01*
X13785Y17413D01*
X13200Y17529D01*
X-704D01*
X-6271Y23096D01*
Y31662D01*
X-6086Y31786D01*
X-5560Y32572D01*
X-5376Y33500D01*
X-5560Y34428D01*
X-6086Y35214D01*
X-6872Y35740D01*
X-7800Y35925D01*
D02*
G37*
G36*
X-42856Y0D02*
X-44500D01*
Y-1644D01*
X-44141Y-1573D01*
X-43413Y-1087D01*
X-42927Y-359D01*
X-42856Y0D01*
D02*
G37*
G36*
X-45500D02*
X-47144D01*
X-47073Y-359D01*
X-46587Y-1087D01*
X-45859Y-1573D01*
X-45500Y-1644D01*
Y0D01*
D02*
G37*
%LPD*%
D10*
X37551Y-13500D02*
D03*
X31449D02*
D03*
X37551Y-9500D02*
D03*
X31449D02*
D03*
X17012Y-17641D02*
D03*
X10909D02*
D03*
X27551Y-4500D02*
D03*
X21449D02*
D03*
X27551Y4000D02*
D03*
X21449D02*
D03*
X27551Y-500D02*
D03*
X21449D02*
D03*
X10909Y-21641D02*
D03*
X17012D02*
D03*
X20949Y-13500D02*
D03*
X27051D02*
D03*
D12*
X36500Y8602D02*
D03*
Y2500D02*
D03*
X32500Y-29551D02*
D03*
Y-23449D02*
D03*
X41000Y8551D02*
D03*
Y2449D02*
D03*
D16*
X0Y33000D02*
D03*
X11000D02*
D03*
D17*
X29288Y-30000D02*
X32500D01*
X34000Y4000D02*
X36000Y2000D01*
X32500Y-23449D02*
X36051D01*
X33000Y-24449D02*
X33029Y-24419D01*
X32000Y4000D02*
X34000D01*
X27551Y4500D02*
X32500Y9449D01*
X37551Y-8449D02*
X39500Y-6500D01*
Y-3000D01*
X31449Y-13500D02*
Y-9500D01*
X-7800Y22463D02*
Y33500D01*
X-1337Y16000D02*
X13200D01*
X-7800Y22463D02*
X-1337Y16000D01*
X13200D02*
X14200Y15000D01*
X44500Y-15000D02*
Y0D01*
X36051Y-23449D02*
X44500Y-15000D01*
X26288Y-33000D02*
X29288Y-30000D01*
X10019Y-17250D02*
X10909Y-18141D01*
X5500Y33100D02*
X11000D01*
X3750Y-21750D02*
X6750Y-24750D01*
X17012Y-10848D02*
X17100Y-10760D01*
X43000Y12051D02*
Y12500D01*
X32500Y10000D02*
X33327Y10827D01*
Y10897D01*
X33500Y11070D01*
Y25000D01*
X32500Y9449D02*
Y10000D01*
X11000Y33100D02*
Y37300D01*
Y33000D02*
Y33100D01*
X14200Y15000D02*
X21839D01*
X9500Y38800D02*
X11000Y37300D01*
X-11300Y38800D02*
X9500D01*
X-27700Y22400D02*
X-11300Y38800D01*
X22851Y9200D02*
X27551Y4500D01*
X21839Y15000D02*
X28000D01*
X1000Y26000D02*
X28000D01*
X0Y27000D02*
X1000Y26000D01*
X0Y27000D02*
Y33000D01*
X28000Y26000D02*
X32500D01*
X33500Y25000D01*
X38000Y9000D02*
X39949D01*
X6500Y-4000D02*
X20449D01*
X36551Y2449D02*
X41000D01*
X36500Y2500D02*
X36551Y2449D01*
X21449Y-5000D02*
Y-4500D01*
Y-500D01*
X27551Y-5000D02*
Y-4500D01*
Y-500D01*
X21449D02*
Y4000D01*
Y4500D01*
X27551Y-500D02*
Y4000D01*
Y4500D01*
X41000Y2449D02*
X42051D01*
X44500Y0D01*
X-10000D02*
X0D01*
X9200Y9200D01*
X22851D01*
X-16000Y-28500D02*
X-11500Y-33000D01*
X26288D01*
X-27700Y-5000D02*
Y22400D01*
Y-5000D02*
X-17500D01*
X-5500Y-17000D01*
X0Y-17500D02*
X1000D01*
X-500Y-17000D02*
X0Y-17500D01*
X-5500Y-17000D02*
X-500D01*
X7000Y-24500D02*
X7500Y-25000D01*
X1000Y-17500D02*
X3750Y-20250D01*
Y-21750D02*
Y-20250D01*
X0Y-10000D02*
X7250Y-17250D01*
X10019D01*
X10909Y-22141D02*
Y-21641D01*
Y-18141D01*
X17012Y-22141D02*
Y-21641D01*
Y-17641D01*
X20449Y-4000D02*
X21449Y-5000D01*
X39949Y9000D02*
X43000Y12051D01*
X37551Y-9500D02*
Y-8449D01*
X17012Y-13500D02*
X19449D01*
X17012Y-17641D02*
Y-13500D01*
Y-10848D01*
X37551Y-14000D02*
Y-13500D01*
Y-9500D01*
X28051Y-13000D02*
X30449D01*
X-16100Y-39400D02*
X-9333D01*
X26551Y-14500D02*
X28051Y-13000D01*
X30449D02*
X31449Y-14000D01*
X19449Y-13500D02*
X20449Y-14500D01*
D18*
X-16000Y-28500D02*
D03*
X-29445Y-32103D02*
D03*
X-12397Y-41945D02*
D03*
X-2555Y-24897D02*
D03*
X-19603Y-15055D02*
D03*
D19*
X0Y-10000D02*
D03*
D20*
X-10000Y0D02*
D03*
X0Y10000D02*
D03*
D21*
X32000Y4000D02*
D03*
X39500Y-3000D02*
D03*
X-7800Y33500D02*
D03*
X43000Y12500D02*
D03*
X14200Y15000D02*
D03*
X21839D02*
D03*
X5500Y33100D02*
D03*
X6500Y-4000D02*
D03*
D22*
X17100Y-10760D02*
D03*
X46500Y5500D02*
D03*
X-1500Y-38000D02*
D03*
X6000Y-28500D02*
D03*
X12000D02*
D03*
X19000D02*
D03*
X5000Y-38000D02*
D03*
X12000D02*
D03*
X19000D02*
D03*
X4500Y43000D02*
D03*
X30500Y31500D02*
D03*
X-42000Y-13000D02*
D03*
X-45000Y500D02*
D03*
X-36000Y23500D02*
D03*
X-30000Y31000D02*
D03*
X7000Y-24500D02*
D03*
X48000Y-4500D02*
D03*
X41500Y-11000D02*
D03*
D23*
X28000Y26000D02*
D03*
Y15000D02*
D03*
M02*
