G04 Layer_Physical_Order=1*
G04 Layer_Color=255*
%FSLAX25Y25*%
%MOIN*%
G70*
G01*
G75*
%ADD10R,0.03347X0.03347*%
%ADD11R,0.02362X0.04331*%
%ADD12R,0.03347X0.03347*%
%ADD13R,0.02200X0.05800*%
%ADD14R,0.02800X0.07000*%
%ADD15R,0.07500X0.08700*%
%ADD16R,0.06000X0.08000*%
%ADD17C,0.01000*%
%ADD18C,0.09842*%
%ADD19R,0.05512X0.05512*%
%ADD20C,0.05512*%
%ADD21C,0.02756*%
%ADD22C,0.02402*%
G36*
X5840Y49343D02*
X9693Y48732D01*
X13487Y47822D01*
X17198Y46616D01*
X20802Y45123D01*
X24278Y43352D01*
X27605Y41313D01*
X30761Y39020D01*
X33728Y36486D01*
X36486Y33728D01*
X39020Y30761D01*
X41313Y27605D01*
X43352Y24278D01*
X45123Y20802D01*
X46616Y17198D01*
X47822Y13487D01*
X48732Y9693D01*
X49343Y5840D01*
X49649Y1951D01*
Y-1951D01*
X49613Y-2412D01*
X49163Y-2630D01*
X48859Y-2427D01*
X48500Y-2356D01*
Y-4500D01*
Y-6644D01*
X48716Y-6601D01*
X49172Y-6920D01*
X48732Y-9693D01*
X47822Y-13487D01*
X46616Y-17198D01*
X45123Y-20802D01*
X43352Y-24278D01*
X41313Y-27605D01*
X39020Y-30761D01*
X36486Y-33728D01*
X33728Y-36486D01*
X30761Y-39020D01*
X27605Y-41313D01*
X24278Y-43352D01*
X20802Y-45123D01*
X17198Y-46616D01*
X13487Y-47822D01*
X9693Y-48732D01*
X5840Y-49343D01*
X1951Y-49649D01*
X-1951D01*
X-5840Y-49343D01*
X-9693Y-48732D01*
X-11484Y-48303D01*
X-11465Y-47793D01*
X-10858Y-47692D01*
X-9766Y-47282D01*
X-8775Y-46666D01*
X-7924Y-45868D01*
X-7537Y-45329D01*
X-12647Y-42378D01*
X-17758Y-39428D01*
X-18032Y-40033D01*
X-18296Y-41169D01*
X-18335Y-42334D01*
X-18145Y-43485D01*
X-17734Y-44577D01*
X-17118Y-45567D01*
X-16707Y-46006D01*
X-16786Y-46653D01*
X-16884Y-46718D01*
X-17198Y-46616D01*
X-20802Y-45123D01*
X-24278Y-43352D01*
X-27605Y-41313D01*
X-30761Y-39020D01*
X-31918Y-38032D01*
X-31647Y-37606D01*
X-31358Y-37737D01*
X-30222Y-38002D01*
X-29056Y-38040D01*
X-27905Y-37850D01*
X-26814Y-37439D01*
X-25823Y-36823D01*
X-24972Y-36026D01*
X-24585Y-35486D01*
X-29695Y-32536D01*
X-34805Y-29585D01*
X-35079Y-30190D01*
X-35344Y-31326D01*
X-35382Y-32492D01*
X-35192Y-33643D01*
X-34782Y-34734D01*
X-35190Y-35024D01*
X-36486Y-33728D01*
X-39020Y-30761D01*
X-41313Y-27605D01*
X-43352Y-24278D01*
X-45123Y-20802D01*
X-46616Y-17198D01*
X-47822Y-13487D01*
X-48732Y-9693D01*
X-49343Y-5840D01*
X-49649Y-1951D01*
Y1951D01*
X-49343Y5840D01*
X-48732Y9693D01*
X-47822Y13487D01*
X-46616Y17198D01*
X-45123Y20802D01*
X-43352Y24278D01*
X-41313Y27605D01*
X-39020Y30761D01*
X-36486Y33728D01*
X-33728Y36486D01*
X-30761Y39020D01*
X-27605Y41313D01*
X-24278Y43352D01*
X-20802Y45123D01*
X-17198Y46616D01*
X-13487Y47822D01*
X-9693Y48732D01*
X-5840Y49343D01*
X-1951Y49649D01*
X1951D01*
X5840Y49343D01*
D02*
G37*
%LPC*%
G36*
X18500Y-29000D02*
X16856D01*
X16927Y-29359D01*
X17413Y-30087D01*
X18141Y-30573D01*
X18500Y-30644D01*
Y-29000D01*
D02*
G37*
G36*
X21144D02*
X19500D01*
Y-30644D01*
X19859Y-30573D01*
X20587Y-30087D01*
X21073Y-29359D01*
X21144Y-29000D01*
D02*
G37*
G36*
X829Y-20037D02*
X-1872Y-24714D01*
X2805Y-27415D01*
X3079Y-26810D01*
X3344Y-25674D01*
X3382Y-24508D01*
X3192Y-23358D01*
X2782Y-22266D01*
X2166Y-21275D01*
X1368Y-20424D01*
X829Y-20037D01*
D02*
G37*
G36*
X-7915Y-22380D02*
X-8189Y-22985D01*
X-8454Y-24121D01*
X-8492Y-25286D01*
X-8302Y-26437D01*
X-7891Y-27529D01*
X-7275Y-28519D01*
X-6478Y-29371D01*
X-5938Y-29757D01*
X-3238Y-25080D01*
X-7915Y-22380D01*
D02*
G37*
G36*
X14144Y-29000D02*
X12500D01*
Y-30644D01*
X12859Y-30573D01*
X13587Y-30087D01*
X14073Y-29359D01*
X14144Y-29000D01*
D02*
G37*
G36*
X5500D02*
X3856D01*
X3927Y-29359D01*
X4413Y-30087D01*
X5141Y-30573D01*
X5500Y-30644D01*
Y-29000D01*
D02*
G37*
G36*
X-2372Y-25580D02*
X-5072Y-30257D01*
X-4467Y-30532D01*
X-3331Y-30796D01*
X-2166Y-30835D01*
X-1015Y-30645D01*
X77Y-30234D01*
X1067Y-29618D01*
X1919Y-28820D01*
X2305Y-28281D01*
X-2372Y-25580D01*
D02*
G37*
G36*
X11500Y-29000D02*
X9856D01*
X9927Y-29359D01*
X10413Y-30087D01*
X11141Y-30573D01*
X11500Y-30644D01*
Y-29000D01*
D02*
G37*
G36*
X8144D02*
X6500D01*
Y-30644D01*
X6859Y-30573D01*
X7587Y-30087D01*
X8073Y-29359D01*
X8144Y-29000D01*
D02*
G37*
G36*
X-2944Y-18960D02*
X-4095Y-19150D01*
X-5186Y-19561D01*
X-6177Y-20177D01*
X-7028Y-20974D01*
X-7415Y-21514D01*
X-2738Y-24214D01*
X-37Y-19537D01*
X-642Y-19263D01*
X-1778Y-18998D01*
X-2944Y-18960D01*
D02*
G37*
G36*
X-19992Y-9118D02*
X-21143Y-9308D01*
X-22234Y-9718D01*
X-23225Y-10334D01*
X-24076Y-11132D01*
X-24463Y-11671D01*
X-19786Y-14372D01*
X-17085Y-9695D01*
X-17690Y-9421D01*
X-18826Y-9156D01*
X-19992Y-9118D01*
D02*
G37*
G36*
X-39856Y-13500D02*
X-41500D01*
Y-15144D01*
X-41141Y-15073D01*
X-40413Y-14587D01*
X-39927Y-13859D01*
X-39856Y-13500D01*
D02*
G37*
G36*
X-42500Y-10856D02*
X-42859Y-10927D01*
X-43587Y-11413D01*
X-44073Y-12141D01*
X-44144Y-12500D01*
X-42500D01*
Y-10856D01*
D02*
G37*
G36*
X43644Y-11500D02*
X42000D01*
Y-13144D01*
X42359Y-13073D01*
X43087Y-12587D01*
X43573Y-11859D01*
X43644Y-11500D01*
D02*
G37*
G36*
X-42500Y-13500D02*
X-44144D01*
X-44073Y-13859D01*
X-43587Y-14587D01*
X-42859Y-15073D01*
X-42500Y-15144D01*
Y-13500D01*
D02*
G37*
G36*
X27744Y-18500D02*
X25551D01*
Y-20693D01*
X26724D01*
X27115Y-20615D01*
X27445Y-20394D01*
X27666Y-20063D01*
X27744Y-19673D01*
Y-18500D01*
D02*
G37*
G36*
X24551D02*
X22358D01*
Y-19673D01*
X22436Y-20063D01*
X22657Y-20394D01*
X22988Y-20615D01*
X23378Y-20693D01*
X24551D01*
Y-18500D01*
D02*
G37*
G36*
Y-15307D02*
X23378D01*
X22988Y-15385D01*
X22657Y-15606D01*
X22436Y-15937D01*
X22358Y-16327D01*
Y-17500D01*
X24551D01*
Y-15307D01*
D02*
G37*
G36*
X-24963Y-12537D02*
X-25237Y-13142D01*
X-25502Y-14278D01*
X-25540Y-15444D01*
X-25350Y-16595D01*
X-24939Y-17686D01*
X-24323Y-18677D01*
X-23526Y-19528D01*
X-22986Y-19915D01*
X-20286Y-15238D01*
X-24963Y-12537D01*
D02*
G37*
G36*
X-33480Y8000D02*
X-37500D01*
X-41520D01*
Y4500D01*
X-41442Y4110D01*
X-41221Y3779D01*
X-40890Y3558D01*
X-40500Y3480D01*
X-39029D01*
Y-22500D01*
X-38913Y-23085D01*
X-38581Y-23581D01*
X-33946Y-28217D01*
X-34305Y-28719D01*
X-29628Y-31420D01*
X-26928Y-26743D01*
X-27533Y-26468D01*
X-28669Y-26204D01*
X-29834Y-26165D01*
X-30985Y-26355D01*
X-31346Y-26491D01*
X-35971Y-21867D01*
Y3480D01*
X-34500D01*
X-34110Y3558D01*
X-33779Y3779D01*
X-33558Y4110D01*
X-33480Y4500D01*
Y8000D01*
D02*
G37*
G36*
X11500Y-38500D02*
X9856D01*
X9927Y-38859D01*
X10413Y-39587D01*
X11141Y-40073D01*
X11500Y-40144D01*
Y-38500D01*
D02*
G37*
G36*
X7144D02*
X5500D01*
Y-40144D01*
X5859Y-40073D01*
X6587Y-39587D01*
X7073Y-38859D01*
X7144Y-38500D01*
D02*
G37*
G36*
X14144D02*
X12500D01*
Y-40144D01*
X12859Y-40073D01*
X13587Y-39587D01*
X14073Y-38859D01*
X14144Y-38500D01*
D02*
G37*
G36*
X21144D02*
X19500D01*
Y-40144D01*
X19859Y-40073D01*
X20587Y-39587D01*
X21073Y-38859D01*
X21144Y-38500D01*
D02*
G37*
G36*
X18500D02*
X16856D01*
X16927Y-38859D01*
X17413Y-39587D01*
X18141Y-40073D01*
X18500Y-40144D01*
Y-38500D01*
D02*
G37*
G36*
X-12787Y-36008D02*
X-13937Y-36198D01*
X-15029Y-36609D01*
X-16019Y-37225D01*
X-16871Y-38022D01*
X-17257Y-38562D01*
X-12580Y-41262D01*
X-9880Y-36585D01*
X-10485Y-36311D01*
X-11621Y-36046D01*
X-12787Y-36008D01*
D02*
G37*
G36*
X-9014Y-37085D02*
X-11714Y-41762D01*
X-7037Y-44462D01*
X-6763Y-43858D01*
X-6498Y-42722D01*
X-6460Y-41556D01*
X-6650Y-40405D01*
X-7061Y-39314D01*
X-7677Y-38323D01*
X-8474Y-37472D01*
X-9014Y-37085D01*
D02*
G37*
G36*
X-2000Y-38500D02*
X-3644D01*
X-3573Y-38859D01*
X-3087Y-39587D01*
X-2359Y-40073D01*
X-2000Y-40144D01*
Y-38500D01*
D02*
G37*
G36*
X4500D02*
X2856D01*
X2927Y-38859D01*
X3413Y-39587D01*
X4141Y-40073D01*
X4500Y-40144D01*
Y-38500D01*
D02*
G37*
G36*
X644D02*
X-1000D01*
Y-40144D01*
X-641Y-40073D01*
X87Y-39587D01*
X573Y-38859D01*
X644Y-38500D01*
D02*
G37*
G36*
X18500Y-35856D02*
X18141Y-35927D01*
X17413Y-36413D01*
X16927Y-37141D01*
X16856Y-37500D01*
X18500D01*
Y-35856D01*
D02*
G37*
G36*
X12500D02*
Y-37500D01*
X14144D01*
X14073Y-37141D01*
X13587Y-36413D01*
X12859Y-35927D01*
X12500Y-35856D01*
D02*
G37*
G36*
X19500D02*
Y-37500D01*
X21144D01*
X21073Y-37141D01*
X20587Y-36413D01*
X19859Y-35927D01*
X19500Y-35856D01*
D02*
G37*
G36*
X-16389Y-22563D02*
X-17540Y-22753D01*
X-18632Y-23164D01*
X-19622Y-23780D01*
X-20473Y-24577D01*
X-21153Y-25525D01*
X-21634Y-26588D01*
X-21899Y-27723D01*
X-21937Y-28889D01*
X-21747Y-30040D01*
X-21336Y-31132D01*
X-20720Y-32122D01*
X-19923Y-32973D01*
X-18975Y-33653D01*
X-17912Y-34134D01*
X-16777Y-34399D01*
X-15611Y-34437D01*
X-14460Y-34247D01*
X-13368Y-33836D01*
X-12378Y-33220D01*
X-11527Y-32423D01*
X-10847Y-31475D01*
X-10366Y-30413D01*
X-10101Y-29277D01*
X-10063Y-28111D01*
X-10253Y-26960D01*
X-10664Y-25868D01*
X-11280Y-24878D01*
X-12077Y-24027D01*
X-13025Y-23347D01*
X-14087Y-22866D01*
X-15223Y-22601D01*
X-16389Y-22563D01*
D02*
G37*
G36*
X-26062Y-27242D02*
X-28762Y-31920D01*
X-24085Y-34620D01*
X-23811Y-34015D01*
X-23546Y-32879D01*
X-23508Y-31714D01*
X-23698Y-30563D01*
X-24109Y-29471D01*
X-24725Y-28480D01*
X-25522Y-27629D01*
X-26062Y-27242D01*
D02*
G37*
G36*
X-1000Y-35856D02*
Y-37500D01*
X644D01*
X573Y-37141D01*
X87Y-36413D01*
X-641Y-35927D01*
X-1000Y-35856D01*
D02*
G37*
G36*
X-2000D02*
X-2359Y-35927D01*
X-3087Y-36413D01*
X-3573Y-37141D01*
X-3644Y-37500D01*
X-2000D01*
Y-35856D01*
D02*
G37*
G36*
X4500D02*
X4141Y-35927D01*
X3413Y-36413D01*
X2927Y-37141D01*
X2856Y-37500D01*
X4500D01*
Y-35856D01*
D02*
G37*
G36*
X11500D02*
X11141Y-35927D01*
X10413Y-36413D01*
X9927Y-37141D01*
X9856Y-37500D01*
X11500D01*
Y-35856D01*
D02*
G37*
G36*
X5500D02*
Y-37500D01*
X7144D01*
X7073Y-37141D01*
X6587Y-36413D01*
X5859Y-35927D01*
X5500Y-35856D01*
D02*
G37*
G36*
X-41500Y-10856D02*
Y-12500D01*
X-39856D01*
X-39927Y-12141D01*
X-40413Y-11413D01*
X-41141Y-10927D01*
X-41500Y-10856D01*
D02*
G37*
G36*
X30000Y31000D02*
X28356D01*
X28427Y30641D01*
X28913Y29913D01*
X29641Y29427D01*
X30000Y29356D01*
Y31000D01*
D02*
G37*
G36*
X-27856Y30500D02*
X-29500D01*
Y28856D01*
X-29141Y28927D01*
X-28413Y29413D01*
X-27927Y30141D01*
X-27856Y30500D01*
D02*
G37*
G36*
X32644Y31000D02*
X31000D01*
Y29356D01*
X31359Y29427D01*
X32087Y29913D01*
X32573Y30641D01*
X32644Y31000D01*
D02*
G37*
G36*
X-30500Y33144D02*
X-30859Y33073D01*
X-31587Y32587D01*
X-32073Y31859D01*
X-32144Y31500D01*
X-30500D01*
Y33144D01*
D02*
G37*
G36*
X-19700Y35000D02*
X-23970D01*
Y31150D01*
X-23892Y30760D01*
X-23671Y30429D01*
X-23340Y30208D01*
X-22950Y30130D01*
X-19700D01*
Y35000D01*
D02*
G37*
G36*
X39173Y23744D02*
X38000D01*
Y21551D01*
X40193D01*
Y22724D01*
X40115Y23115D01*
X39894Y23445D01*
X39563Y23666D01*
X39173Y23744D01*
D02*
G37*
G36*
X-33856Y23000D02*
X-35500D01*
Y21356D01*
X-35141Y21427D01*
X-34413Y21913D01*
X-33927Y22641D01*
X-33856Y23000D01*
D02*
G37*
G36*
X-36500Y25644D02*
X-36859Y25573D01*
X-37587Y25087D01*
X-38073Y24359D01*
X-38144Y24000D01*
X-36500D01*
Y25644D01*
D02*
G37*
G36*
X-30500Y30500D02*
X-32144D01*
X-32073Y30141D01*
X-31587Y29413D01*
X-30859Y28927D01*
X-30500Y28856D01*
Y30500D01*
D02*
G37*
G36*
X-35500Y25644D02*
Y24000D01*
X-33856D01*
X-33927Y24359D01*
X-34413Y25087D01*
X-35141Y25573D01*
X-35500Y25644D01*
D02*
G37*
G36*
X4000Y42500D02*
X2356D01*
X2427Y42141D01*
X2913Y41413D01*
X3641Y40927D01*
X4000Y40856D01*
Y42500D01*
D02*
G37*
G36*
X17700Y40870D02*
X14450D01*
X14060Y40792D01*
X13729Y40571D01*
X13508Y40240D01*
X13430Y39850D01*
Y39529D01*
X5103D01*
X4600Y39629D01*
X-8500D01*
X-9085Y39513D01*
X-9581Y39181D01*
X-11781Y36981D01*
X-12113Y36485D01*
X-12229Y35900D01*
Y35329D01*
X-14430D01*
Y39850D01*
X-14508Y40240D01*
X-14729Y40571D01*
X-15060Y40792D01*
X-15450Y40870D01*
X-18700D01*
Y35500D01*
Y30130D01*
X-15450D01*
X-15060Y30208D01*
X-14729Y30429D01*
X-14508Y30760D01*
X-14430Y31150D01*
Y32271D01*
X-12229D01*
Y31700D01*
X-12113Y31115D01*
X-11781Y30619D01*
X-8630Y27467D01*
X-8877Y27007D01*
X-8942Y27020D01*
X-11742D01*
X-12133Y26942D01*
X-12463Y26721D01*
X-12684Y26390D01*
X-12762Y26000D01*
Y24029D01*
X-23807D01*
Y24173D01*
X-23885Y24563D01*
X-24106Y24894D01*
X-24437Y25115D01*
X-24827Y25193D01*
X-28173D01*
X-28563Y25115D01*
X-28894Y24894D01*
X-29115Y24563D01*
X-29193Y24173D01*
Y20827D01*
X-29115Y20437D01*
X-28894Y20106D01*
X-28563Y19885D01*
X-28173Y19807D01*
X-24827D01*
X-24437Y19885D01*
X-24106Y20106D01*
X-23885Y20437D01*
X-23807Y20827D01*
Y20971D01*
X-12762D01*
Y19000D01*
X-12684Y18610D01*
X-12463Y18279D01*
X-12133Y18058D01*
X-11742Y17980D01*
X-8942D01*
X-8552Y18058D01*
X-8221Y18279D01*
X-8180Y18340D01*
X-7583D01*
X-7542Y18279D01*
X-7211Y18058D01*
X-6821Y17980D01*
X-6663D01*
X-6503Y17740D01*
X-5763Y17000D01*
X-7182Y15581D01*
X-11807D01*
Y15724D01*
X-11885Y16115D01*
X-12106Y16445D01*
X-12437Y16666D01*
X-12827Y16744D01*
X-14000D01*
Y14051D01*
Y11358D01*
X-12827D01*
X-12437Y11436D01*
X-12106Y11657D01*
X-11885Y11988D01*
X-11807Y12378D01*
Y12522D01*
X-6549D01*
X-5964Y12638D01*
X-5467Y12970D01*
X-2967Y15471D01*
X7813D01*
Y4833D01*
X7793Y4729D01*
X7671Y4581D01*
X-898D01*
X-1483Y4464D01*
X-1979Y4133D01*
X-4660Y1452D01*
X-5051Y1529D01*
X-6568D01*
X-6719Y1894D01*
X-7321Y2679D01*
X-8106Y3281D01*
X-9020Y3659D01*
X-9500Y3723D01*
Y0D01*
X-10000D01*
Y-500D01*
X-13723D01*
X-13659Y-981D01*
X-13281Y-1894D01*
X-12679Y-2679D01*
X-11894Y-3281D01*
X-11529Y-3432D01*
Y-10869D01*
X-13617Y-12956D01*
X-14106Y-12850D01*
X-14266Y-12423D01*
X-14882Y-11433D01*
X-15679Y-10581D01*
X-16219Y-10195D01*
X-19170Y-15305D01*
X-22120Y-20415D01*
X-21515Y-20689D01*
X-20379Y-20954D01*
X-19214Y-20992D01*
X-18063Y-20802D01*
X-16971Y-20391D01*
X-15980Y-19775D01*
X-15129Y-18978D01*
X-14665Y-18330D01*
X-8919Y-12583D01*
X-8587Y-12087D01*
X-8471Y-11502D01*
Y-3432D01*
X-8106Y-3281D01*
X-7321Y-2679D01*
X-6719Y-1894D01*
X-6568Y-1529D01*
X-5685D01*
X-5582Y-1633D01*
X-5085Y-1964D01*
X-4500Y-2081D01*
X-3915Y-1964D01*
X-3419Y-1633D01*
X-264Y1522D01*
X8307D01*
Y1378D01*
X8385Y988D01*
X8606Y657D01*
X8937Y436D01*
X9327Y358D01*
X10500D01*
Y3051D01*
X11500D01*
Y-30D01*
X11554Y-142D01*
X11386Y-358D01*
X9327D01*
X8937Y-436D01*
X8606Y-657D01*
X8385Y-988D01*
X8307Y-1378D01*
Y-1746D01*
X7807Y-2014D01*
X7428Y-1760D01*
X6500Y-1575D01*
X5572Y-1760D01*
X4786Y-2286D01*
X4260Y-3072D01*
X4075Y-4000D01*
X4260Y-4928D01*
X4786Y-5714D01*
X5140Y-5951D01*
Y-11500D01*
X5218Y-11890D01*
X5439Y-12221D01*
X5500Y-12262D01*
Y-12824D01*
X5038Y-13015D01*
X4364Y-12341D01*
X4081Y-11919D01*
X3776Y-11613D01*
Y-7244D01*
X3698Y-6854D01*
X3477Y-6523D01*
X3146Y-6302D01*
X2756Y-6225D01*
X-2756D01*
X-3146Y-6302D01*
X-3477Y-6523D01*
X-3698Y-6854D01*
X-3776Y-7244D01*
Y-12756D01*
X-3698Y-13146D01*
X-3477Y-13477D01*
X-3146Y-13698D01*
X-2756Y-13776D01*
X1613D01*
X1636Y-13799D01*
X1919Y-14222D01*
X5140Y-17443D01*
Y-20300D01*
X5218Y-20690D01*
X5439Y-21021D01*
X5770Y-21242D01*
X6160Y-21320D01*
X8360D01*
X8750Y-21242D01*
X9130Y-21046D01*
X9510Y-21242D01*
X9900Y-21320D01*
X12100D01*
X12490Y-21242D01*
X12870Y-21046D01*
X13250Y-21242D01*
X13640Y-21320D01*
X15840D01*
X16230Y-21242D01*
X16561Y-21021D01*
X16650Y-20888D01*
X17071Y-20692D01*
X17276Y-20693D01*
X17471Y-20888D01*
Y-22971D01*
X8625D01*
X8587Y-22913D01*
X7859Y-22427D01*
X7000Y-22256D01*
X6141Y-22427D01*
X5413Y-22913D01*
X4927Y-23641D01*
X4756Y-24500D01*
X4927Y-25359D01*
X5281Y-25889D01*
X5149Y-26398D01*
X5102Y-26453D01*
X4413Y-26913D01*
X3927Y-27641D01*
X3856Y-28000D01*
X8144D01*
X8073Y-27641D01*
X7719Y-27111D01*
X7851Y-26602D01*
X7898Y-26547D01*
X8587Y-26087D01*
X8625Y-26029D01*
X10836D01*
X10988Y-26529D01*
X10413Y-26913D01*
X9927Y-27641D01*
X9856Y-28000D01*
X14144D01*
X14073Y-27641D01*
X13587Y-26913D01*
X13012Y-26529D01*
X13164Y-26029D01*
X17836D01*
X17988Y-26529D01*
X17413Y-26913D01*
X16927Y-27641D01*
X16856Y-28000D01*
X21144D01*
X21073Y-27641D01*
X20587Y-26913D01*
X19859Y-26427D01*
X19696Y-26395D01*
X19630Y-26107D01*
X19643Y-25874D01*
X20081Y-25581D01*
X20413Y-25085D01*
X20529Y-24500D01*
Y-20693D01*
X20622D01*
X21012Y-20615D01*
X21343Y-20394D01*
X21564Y-20063D01*
X21642Y-19673D01*
Y-16327D01*
X21564Y-15937D01*
X21343Y-15606D01*
X21012Y-15385D01*
X20622Y-15307D01*
X17276D01*
X16860Y-14880D01*
Y-14500D01*
X16782Y-14110D01*
X16611Y-13853D01*
X16608Y-13301D01*
X16993Y-12982D01*
X17100Y-13004D01*
X17959Y-12833D01*
X18687Y-12347D01*
X19173Y-11619D01*
X19344Y-10760D01*
X19173Y-9901D01*
X18687Y-9173D01*
X17959Y-8687D01*
X17100Y-8516D01*
X16860Y-8319D01*
Y-5700D01*
X16782Y-5310D01*
X16561Y-4979D01*
X16230Y-4758D01*
X15840Y-4680D01*
X13693D01*
Y-2521D01*
X15281Y-933D01*
X15613Y-436D01*
X15648Y-260D01*
X15669Y-251D01*
X16168Y-207D01*
X16419Y-581D01*
X28363Y-12526D01*
X25581Y-15307D01*
X25551D01*
Y-17500D01*
X27744D01*
Y-17470D01*
X31633Y-13581D01*
X31633Y-13581D01*
X32185Y-13029D01*
X36000D01*
X36585Y-12913D01*
X37081Y-12581D01*
X38815Y-10847D01*
X39275Y-11095D01*
X39427Y-11859D01*
X39913Y-12587D01*
X40641Y-13073D01*
X41000Y-13144D01*
Y-11000D01*
X41500D01*
Y-10500D01*
X43777D01*
X43988Y-10244D01*
X44000D01*
Y-7551D01*
X44500D01*
Y-7051D01*
X47193D01*
Y-6977D01*
X47500Y-6725D01*
Y-4500D01*
Y-2275D01*
X47193Y-2023D01*
Y224D01*
X47115Y615D01*
X46894Y945D01*
X46563Y1166D01*
X46173Y1244D01*
X42827D01*
X42437Y1166D01*
X42106Y945D01*
X41885Y615D01*
X41807Y224D01*
Y81D01*
X40082D01*
X39941Y222D01*
Y1441D01*
X39905Y1623D01*
Y6377D01*
X39941Y6559D01*
Y10890D01*
X39863Y11280D01*
X39642Y11611D01*
X39378Y11787D01*
X39369Y12058D01*
X39431Y12307D01*
X39563Y12334D01*
X39894Y12555D01*
X39967Y12663D01*
X40103Y12688D01*
X40576Y12500D01*
X40760Y11572D01*
X41286Y10786D01*
X42072Y10260D01*
X43000Y10075D01*
X43928Y10260D01*
X44714Y10786D01*
X45240Y11572D01*
X45425Y12500D01*
X45240Y13428D01*
X44714Y14214D01*
X43928Y14740D01*
X43000Y14924D01*
X42782Y14881D01*
X41581Y16081D01*
X41085Y16413D01*
X40500Y16529D01*
X40193D01*
Y16622D01*
X40115Y17012D01*
X39894Y17343D01*
X39563Y17564D01*
X39173Y17642D01*
X35827D01*
X35437Y17564D01*
X35106Y17343D01*
X34885Y17012D01*
X34807Y16622D01*
Y13276D01*
X34885Y12885D01*
X35106Y12555D01*
X35437Y12334D01*
X35827Y12256D01*
X35971D01*
Y11699D01*
X35838Y11611D01*
X35617Y11280D01*
X35576Y11072D01*
X32424D01*
X32383Y11280D01*
X32162Y11611D01*
X31894Y11790D01*
X31882Y12042D01*
X31946Y12310D01*
X32063Y12334D01*
X32394Y12555D01*
X32615Y12885D01*
X32693Y13276D01*
Y16622D01*
X32615Y17012D01*
X32394Y17343D01*
X32063Y17564D01*
X31673Y17642D01*
X29614D01*
X29445Y17858D01*
X29500Y17970D01*
Y21051D01*
Y23744D01*
X29470D01*
X22717Y30497D01*
X22892Y30760D01*
X22970Y31150D01*
Y35000D01*
X18200D01*
X13430D01*
Y31150D01*
X13508Y30760D01*
X13662Y30529D01*
X13543Y30171D01*
X13441Y30029D01*
X7029D01*
Y31262D01*
X7214Y31386D01*
X7740Y32172D01*
X7925Y33100D01*
X7740Y34028D01*
X7214Y34814D01*
X6428Y35340D01*
X5500Y35524D01*
X4572Y35340D01*
X3786Y34814D01*
X3260Y34028D01*
X3076Y33100D01*
X3260Y32172D01*
X3786Y31386D01*
X3971Y31262D01*
Y27663D01*
X3832Y27020D01*
X3021D01*
X2631Y26942D01*
X2300Y26721D01*
X2259Y26660D01*
X1662D01*
X1621Y26721D01*
X1290Y26942D01*
X1029Y26994D01*
Y27100D01*
X913Y27685D01*
X581Y28181D01*
X-5534Y34297D01*
X-5560Y34428D01*
X-6086Y35214D01*
X-6872Y35740D01*
X-7502Y35865D01*
X-7738Y36408D01*
X-7628Y36571D01*
X4197D01*
X4700Y36471D01*
X13430D01*
Y36000D01*
X17700D01*
Y40870D01*
D02*
G37*
G36*
X6644Y42500D02*
X5000D01*
Y40856D01*
X5359Y40927D01*
X6087Y41413D01*
X6573Y42141D01*
X6644Y42500D01*
D02*
G37*
G36*
X5000Y45144D02*
Y43500D01*
X6644D01*
X6573Y43859D01*
X6087Y44587D01*
X5359Y45073D01*
X5000Y45144D01*
D02*
G37*
G36*
X4000D02*
X3641Y45073D01*
X2913Y44587D01*
X2427Y43859D01*
X2356Y43500D01*
X4000D01*
Y45144D01*
D02*
G37*
G36*
X30000Y33644D02*
X29641Y33573D01*
X28913Y33087D01*
X28427Y32359D01*
X28356Y32000D01*
X30000D01*
Y33644D01*
D02*
G37*
G36*
X-29500Y33144D02*
Y31500D01*
X-27856D01*
X-27927Y31859D01*
X-28413Y32587D01*
X-29141Y33073D01*
X-29500Y33144D01*
D02*
G37*
G36*
X31000Y33644D02*
Y32000D01*
X32644D01*
X32573Y32359D01*
X32087Y33087D01*
X31359Y33573D01*
X31000Y33644D01*
D02*
G37*
G36*
X21950Y40870D02*
X18700D01*
Y36000D01*
X22970D01*
Y39850D01*
X22892Y40240D01*
X22671Y40571D01*
X22340Y40792D01*
X21950Y40870D01*
D02*
G37*
G36*
X-19700D02*
X-22950D01*
X-23340Y40792D01*
X-23671Y40571D01*
X-23892Y40240D01*
X-23970Y39850D01*
Y36000D01*
X-19700D01*
Y40870D01*
D02*
G37*
G36*
X-44500Y2644D02*
Y1000D01*
X-42856D01*
X-42927Y1359D01*
X-43413Y2087D01*
X-44141Y2573D01*
X-44500Y2644D01*
D02*
G37*
G36*
X-45500D02*
X-45859Y2573D01*
X-46587Y2087D01*
X-47073Y1359D01*
X-47144Y1000D01*
X-45500D01*
Y2644D01*
D02*
G37*
G36*
X48644Y5000D02*
X47000D01*
Y3356D01*
X47359Y3427D01*
X48087Y3913D01*
X48573Y4641D01*
X48644Y5000D01*
D02*
G37*
G36*
X46000D02*
X44356D01*
X44427Y4641D01*
X44913Y3913D01*
X45641Y3427D01*
X46000Y3356D01*
Y5000D01*
D02*
G37*
G36*
X-10500Y3723D02*
X-10981Y3659D01*
X-11894Y3281D01*
X-12679Y2679D01*
X-13281Y1894D01*
X-13659Y981D01*
X-13723Y500D01*
X-10500D01*
Y3723D01*
D02*
G37*
G36*
X-24827Y19091D02*
X-28173D01*
X-28563Y19013D01*
X-28894Y18792D01*
X-29115Y18461D01*
X-29193Y18071D01*
Y14724D01*
X-29115Y14334D01*
X-28905Y14020D01*
X-28924Y13922D01*
X-29070Y13520D01*
X-29500D01*
X-29890Y13442D01*
X-30221Y13221D01*
X-30442Y12890D01*
X-30520Y12500D01*
Y4500D01*
X-30442Y4110D01*
X-30221Y3779D01*
X-29890Y3558D01*
X-29500Y3480D01*
X-28029D01*
Y2632D01*
X-28115Y2615D01*
X-28445Y2394D01*
X-28666Y2063D01*
X-28744Y1673D01*
Y-1673D01*
X-28666Y-2063D01*
X-28445Y-2394D01*
X-28115Y-2615D01*
X-27724Y-2693D01*
X-24378D01*
X-23988Y-2615D01*
X-23657Y-2394D01*
X-23436Y-2063D01*
X-23358Y-1673D01*
Y1673D01*
X-23436Y2063D01*
X-23657Y2394D01*
X-23988Y2615D01*
X-24378Y2693D01*
X-24971D01*
Y3480D01*
X-23500D01*
X-23110Y3558D01*
X-22779Y3779D01*
X-22558Y4110D01*
X-22480Y4500D01*
Y12500D01*
X-22558Y12890D01*
X-22779Y13221D01*
X-23110Y13442D01*
X-23500Y13520D01*
X-23930D01*
X-24076Y13922D01*
X-24095Y14020D01*
X-23885Y14334D01*
X-23807Y14724D01*
Y18071D01*
X-23885Y18461D01*
X-24106Y18792D01*
X-24437Y19013D01*
X-24827Y19091D01*
D02*
G37*
G36*
X47193Y-8051D02*
X45000D01*
Y-10244D01*
X46173D01*
X46563Y-10166D01*
X46894Y-9945D01*
X47115Y-9615D01*
X47193Y-9224D01*
Y-8051D01*
D02*
G37*
G36*
X-42856Y0D02*
X-44500D01*
Y-1644D01*
X-44141Y-1573D01*
X-43413Y-1087D01*
X-42927Y-359D01*
X-42856Y0D01*
D02*
G37*
G36*
X-45500D02*
X-47144D01*
X-47073Y-359D01*
X-46587Y-1087D01*
X-45859Y-1573D01*
X-45500Y-1644D01*
Y0D01*
D02*
G37*
G36*
X46000Y7644D02*
X45641Y7573D01*
X44913Y7087D01*
X44427Y6359D01*
X44356Y6000D01*
X46000D01*
Y7644D01*
D02*
G37*
G36*
X31673Y23744D02*
X30500D01*
Y21051D01*
Y18358D01*
X31673D01*
X32063Y18436D01*
X32394Y18657D01*
X32615Y18988D01*
X32693Y19378D01*
Y19522D01*
X34194D01*
X34451Y19471D01*
X34807D01*
Y19378D01*
X34885Y18988D01*
X35106Y18657D01*
X35437Y18436D01*
X35827Y18358D01*
X37000D01*
Y21051D01*
Y23744D01*
X35827D01*
X35437Y23666D01*
X35106Y23445D01*
X34885Y23115D01*
X34853Y22954D01*
X34400Y22581D01*
X32693D01*
Y22724D01*
X32615Y23115D01*
X32394Y23445D01*
X32063Y23666D01*
X31673Y23744D01*
D02*
G37*
G36*
X-15000Y16744D02*
X-16173D01*
X-16563Y16666D01*
X-16894Y16445D01*
X-17115Y16115D01*
X-17193Y15724D01*
Y14551D01*
X-15000D01*
Y16744D01*
D02*
G37*
G36*
X-36500Y23000D02*
X-38144D01*
X-38073Y22641D01*
X-37587Y21913D01*
X-36859Y21427D01*
X-36500Y21356D01*
Y23000D01*
D02*
G37*
G36*
X40193Y20551D02*
X38000D01*
Y18358D01*
X39173D01*
X39563Y18436D01*
X39894Y18657D01*
X40115Y18988D01*
X40193Y19378D01*
Y20551D01*
D02*
G37*
G36*
X-15000Y13551D02*
X-17193D01*
Y12378D01*
X-17115Y11988D01*
X-16894Y11657D01*
X-16563Y11436D01*
X-16173Y11358D01*
X-15000D01*
Y13551D01*
D02*
G37*
G36*
X-38000Y13520D02*
X-40500D01*
X-40890Y13442D01*
X-41221Y13221D01*
X-41442Y12890D01*
X-41520Y12500D01*
Y9000D01*
X-38000D01*
Y13520D01*
D02*
G37*
G36*
X47000Y7644D02*
Y6000D01*
X48644D01*
X48573Y6359D01*
X48087Y7087D01*
X47359Y7573D01*
X47000Y7644D01*
D02*
G37*
G36*
X0Y13788D02*
X-981Y13659D01*
X-1894Y13281D01*
X-2679Y12679D01*
X-3281Y11894D01*
X-3659Y10981D01*
X-3788Y10000D01*
X-3769Y9854D01*
X-4099Y9478D01*
X-11807D01*
Y9622D01*
X-11885Y10012D01*
X-12106Y10343D01*
X-12437Y10564D01*
X-12827Y10642D01*
X-16173D01*
X-16563Y10564D01*
X-16894Y10343D01*
X-17115Y10012D01*
X-17193Y9622D01*
Y8325D01*
X-17203Y8276D01*
Y7960D01*
X-20081Y5081D01*
X-20413Y4585D01*
X-20529Y4000D01*
Y2693D01*
X-21622D01*
X-22012Y2615D01*
X-22343Y2394D01*
X-22564Y2063D01*
X-22642Y1673D01*
Y-1673D01*
X-22564Y-2063D01*
X-22343Y-2394D01*
X-22012Y-2615D01*
X-21622Y-2693D01*
X-18276D01*
X-17885Y-2615D01*
X-17555Y-2394D01*
X-17334Y-2063D01*
X-17256Y-1673D01*
Y1673D01*
X-17334Y2063D01*
X-17471Y2268D01*
Y3367D01*
X-15581Y5256D01*
X-12827D01*
X-12437Y5334D01*
X-12106Y5555D01*
X-11885Y5885D01*
X-11807Y6276D01*
Y6419D01*
X-1170D01*
X-981Y6341D01*
X0Y6212D01*
X981Y6341D01*
X1894Y6719D01*
X2679Y7321D01*
X3281Y8106D01*
X3659Y9020D01*
X3788Y10000D01*
X3659Y10981D01*
X3281Y11894D01*
X2679Y12679D01*
X1894Y13281D01*
X981Y13659D01*
X0Y13788D01*
D02*
G37*
G36*
X-34500Y13520D02*
X-37000D01*
Y9000D01*
X-33480D01*
Y12500D01*
X-33558Y12890D01*
X-33779Y13221D01*
X-34110Y13442D01*
X-34500Y13520D01*
D02*
G37*
%LPD*%
G36*
X27307Y15479D02*
Y13276D01*
X27385Y12885D01*
X27606Y12555D01*
X27937Y12334D01*
X28327Y12256D01*
X28453D01*
X28575Y11756D01*
X28358Y11611D01*
X28137Y11280D01*
X28059Y10890D01*
Y6559D01*
X28137Y6169D01*
X28358Y5838D01*
X28688Y5617D01*
X29000Y5555D01*
Y2874D01*
X28847Y2645D01*
X28799Y2405D01*
X28688Y2383D01*
X28358Y2162D01*
X28137Y1831D01*
X28059Y1441D01*
Y-2890D01*
X28137Y-3280D01*
X27722Y-3559D01*
X23368Y795D01*
Y13162D01*
X23553Y13286D01*
X24079Y14072D01*
X24263Y15000D01*
X24079Y15928D01*
X23553Y16714D01*
X22767Y17240D01*
X21839Y17424D01*
X20911Y17240D01*
X20124Y16714D01*
X19599Y15928D01*
X19529Y15579D01*
X19029Y15628D01*
Y15900D01*
X18913Y16485D01*
X18581Y16982D01*
X14581Y20981D01*
X14085Y21313D01*
X13500Y21429D01*
X11762D01*
Y22000D01*
X9343D01*
Y23000D01*
X11762D01*
Y26000D01*
X11685Y26390D01*
X11631Y26471D01*
X11898Y26971D01*
X15815D01*
X27307Y15479D01*
D02*
G37*
D10*
X32949Y-7500D02*
D03*
X39051D02*
D03*
X25051Y-18000D02*
D03*
X18949D02*
D03*
X-19949Y0D02*
D03*
X-26051D02*
D03*
D11*
X30260Y-724D02*
D03*
X34000D02*
D03*
X37740D02*
D03*
Y8724D02*
D03*
X30260D02*
D03*
D12*
X30000Y14949D02*
D03*
Y21051D02*
D03*
X11000Y3051D02*
D03*
Y-3051D02*
D03*
X44500Y-7551D02*
D03*
Y-1449D02*
D03*
X37500Y21051D02*
D03*
Y14949D02*
D03*
X-14500Y14051D02*
D03*
Y7949D02*
D03*
X-26500Y16398D02*
D03*
Y22500D02*
D03*
D13*
X14740Y-8600D02*
D03*
X11000D02*
D03*
X7260D02*
D03*
Y-17400D02*
D03*
X11000D02*
D03*
X14740D02*
D03*
D14*
X-10342Y22500D02*
D03*
X-5421D02*
D03*
X-500D02*
D03*
X4421D02*
D03*
X9343D02*
D03*
D15*
X18200Y35500D02*
D03*
X-19200D02*
D03*
D16*
X-37500Y8500D02*
D03*
X-26500D02*
D03*
D17*
X30260Y2060D02*
X32200Y4000D01*
X32000D02*
X32200D01*
X39449Y-1449D02*
X44500D01*
X39500Y-3000D02*
Y-2500D01*
X40000Y-2000D01*
X39449Y-1449D02*
X40000Y-2000D01*
X34000Y-7500D02*
Y-724D01*
X-7800Y33500D02*
X-6900D01*
X-500Y27100D01*
X19000Y-24500D02*
Y-18000D01*
X14740D02*
X18949D01*
X-15673Y7327D02*
Y8276D01*
X15260Y-10760D02*
X17100D01*
X14740Y-10240D02*
X15260Y-10760D01*
X14740Y-10240D02*
Y-8600D01*
X40500Y15000D02*
X43000Y12500D01*
X29500Y-7500D02*
X32949D01*
X40000D02*
X43000D01*
X31551Y-11500D02*
X36000D01*
X30551Y-12500D02*
X31551Y-11500D01*
X30500Y-12500D02*
X30551D01*
X25051Y-18000D02*
X30551Y-12500D01*
X9343Y18000D02*
Y19900D01*
Y4750D02*
Y18000D01*
X37740Y8724D02*
Y11100D01*
X30000Y13200D02*
Y14949D01*
X4421Y22500D02*
X5500Y27500D01*
X8343Y17000D02*
X9343Y18000D01*
X-3600Y17000D02*
X8343D01*
X-5421Y18821D02*
X-3600Y17000D01*
X-5421Y18821D02*
Y22500D01*
X-10000Y-11502D02*
Y0D01*
X-5051D01*
X21839Y161D02*
X29500Y-7500D01*
X21839Y161D02*
Y15000D01*
X-5421Y22500D02*
Y26421D01*
X4600Y38100D02*
X4700Y38000D01*
X18200Y32851D02*
X30000Y21051D01*
X9343Y19900D02*
Y22500D01*
X13500Y19900D02*
X17500Y15900D01*
X-500Y22500D02*
Y27100D01*
X0Y-10000D02*
X3000Y-13000D01*
X-26500Y22500D02*
X-10342D01*
X34400Y21051D02*
X34451Y21000D01*
X30000Y21051D02*
X34400D01*
X18949Y-18000D02*
X19000D01*
X-26500Y8500D02*
Y16398D01*
X-19000Y949D02*
Y4000D01*
X-15673Y7327D01*
X43000Y-7500D02*
X43051Y-7551D01*
X-14500Y14051D02*
X-6549D01*
X-3600Y17000D01*
X-19949Y0D02*
X-19000Y949D01*
X7260Y-8600D02*
Y-4760D01*
X9322Y4729D02*
X11000Y3051D01*
X-5051Y0D02*
X-4500Y-551D01*
X-898Y3051D01*
X14200Y149D02*
Y15000D01*
X11000Y-8600D02*
Y-3051D01*
X14200Y149D01*
X-898Y3051D02*
X11000D01*
X6500Y-4000D02*
X7260Y-4760D01*
X14740Y-8600D02*
X14840Y-8500D01*
X32949Y-7500D02*
X34000D01*
X43051Y-7551D02*
X44500D01*
X45500D01*
X37740Y-724D02*
X38724D01*
X39449Y-1449D01*
X30260Y-724D02*
Y2060D01*
X30000Y13200D02*
X30260Y12940D01*
Y8724D02*
Y12940D01*
X-14500Y7949D02*
X-1000D01*
X37551Y15000D02*
X40500D01*
X37500Y14949D02*
X37551Y15000D01*
X37500Y11340D02*
Y13398D01*
Y11340D02*
X37740Y11100D01*
X-8500Y38100D02*
X4600D01*
X-10700Y35900D02*
X-8500Y38100D01*
X-10700Y31700D02*
X-5421Y26421D01*
X-17500Y33800D02*
X-10700D01*
X-19200Y35500D02*
X-17500Y33800D01*
X-10700Y31700D02*
Y33800D01*
Y35900D01*
X4700Y38000D02*
X15700D01*
X18200Y35500D01*
Y32851D02*
Y35500D01*
X-37500Y-22500D02*
Y7500D01*
Y-22500D02*
X-29445Y-30555D01*
Y-32103D02*
Y-30555D01*
X7000Y-24500D02*
X19000D01*
X5500Y28500D02*
X16449D01*
X30000Y14949D01*
X5500Y27500D02*
Y28500D01*
Y33100D01*
X-26500Y0D02*
Y8500D01*
X17500Y500D02*
Y15900D01*
Y500D02*
X30500Y-12500D01*
X3000Y-13140D02*
Y-13000D01*
Y-13140D02*
X7260Y-17400D01*
X-16883Y-18385D02*
X-10000Y-11502D01*
X9322Y4729D02*
X9343Y4750D01*
X36000Y-11500D02*
X40000Y-7500D01*
X9343Y19900D02*
X13500D01*
X34451Y21000D02*
X37500D01*
X14840Y-8500D02*
X14940Y-8600D01*
D18*
X-16000Y-28500D02*
D03*
X-29445Y-32103D02*
D03*
X-12397Y-41945D02*
D03*
X-2555Y-24897D02*
D03*
X-19603Y-15055D02*
D03*
D19*
X0Y-10000D02*
D03*
D20*
X-10000Y0D02*
D03*
X0Y10000D02*
D03*
D21*
X32000Y4000D02*
D03*
X39500Y-3000D02*
D03*
X-7800Y33500D02*
D03*
X43000Y12500D02*
D03*
X14200Y15000D02*
D03*
X21839D02*
D03*
X5500Y33100D02*
D03*
X6500Y-4000D02*
D03*
D22*
X17100Y-10760D02*
D03*
X46500Y5500D02*
D03*
X-1500Y-38000D02*
D03*
X6000Y-28500D02*
D03*
X12000D02*
D03*
X19000D02*
D03*
X5000Y-38000D02*
D03*
X12000D02*
D03*
X19000D02*
D03*
X4500Y43000D02*
D03*
X30500Y31500D02*
D03*
X-42000Y-13000D02*
D03*
X-45000Y500D02*
D03*
X-36000Y23500D02*
D03*
X-30000Y31000D02*
D03*
X7000Y-24500D02*
D03*
X48000Y-4500D02*
D03*
X41500Y-11000D02*
D03*
M02*
