M48
; DRILL file {KiCad (5.99.0-2215-gb084305b1)} date 09/12/20 17:30:25
; FORMAT={-:-/ absolute / inch / decimal}
; #@! TF.CreationDate,2020-09-12T17:30:25-04:00
; #@! TF.GenerationSoftware,Kicad,Pcbnew,(5.99.0-2215-gb084305b1)
; #@! TF.FileFunction,Plated,1,2,PTH
FMAT,2
INCH
T1C0.0118
T2C0.0157
T3C0.0236
T4C0.0472
T5C0.0669
%
G90
G05
T1
X3.7323Y-3.7766
X3.8661Y-4.1781
X3.9163Y-4.3189
X3.936Y-4.1398
X4.1191Y-4.2982
X4.123Y-3.8947
X4.125Y-3.9931
T2
X3.499Y-3.8829
X3.626Y-3.8681
X3.7047Y-4.2598
X3.7224Y-3.9449
X4.2057Y-3.9941
X4.2077Y-3.8947
T3
X3.837Y-3.937
X3.937Y-3.837
X3.937Y-4.037
T4
X3.9331Y-3.6191
T5
X3.8331Y-3.5191
X3.8331Y-3.7191
X4.0331Y-3.5191
X4.0331Y-3.7191
T0
M30
