G04 #@! TF.GenerationSoftware,KiCad,Pcbnew,(5.99.0-2215-gb084305b1)*
G04 #@! TF.CreationDate,2020-09-12T17:30:21-04:00*
G04 #@! TF.ProjectId,kicad-sipm,6b696361-642d-4736-9970-6d2e6b696361,rev?*
G04 #@! TF.SameCoordinates,Original*
G04 #@! TF.FileFunction,Soldermask,Bot*
G04 #@! TF.FilePolarity,Negative*
%FSLAX46Y46*%
G04 Gerber Fmt 4.6, Leading zero omitted, Abs format (unit mm)*
G04 Created by KiCad (PCBNEW (5.99.0-2215-gb084305b1)) date 2020-09-12 17:30:21*
%MOMM*%
%LPD*%
G01*
G04 APERTURE LIST*
%ADD10C,2.240000*%
%ADD11C,2.740000*%
%ADD12C,1.200000*%
G04 APERTURE END LIST*
G36*
G01*
X93847400Y-99467500D02*
X93847400Y-99122500D01*
G75*
G02*
X93994900Y-98975000I147500J0D01*
G01*
X94289900Y-98975000D01*
G75*
G02*
X94437400Y-99122500I0J-147500D01*
G01*
X94437400Y-99467500D01*
G75*
G02*
X94289900Y-99615000I-147500J0D01*
G01*
X93994900Y-99615000D01*
G75*
G02*
X93847400Y-99467500I0J147500D01*
G01*
G37*
G36*
G01*
X92877400Y-99467500D02*
X92877400Y-99122500D01*
G75*
G02*
X93024900Y-98975000I147500J0D01*
G01*
X93319900Y-98975000D01*
G75*
G02*
X93467400Y-99122500I0J-147500D01*
G01*
X93467400Y-99467500D01*
G75*
G02*
X93319900Y-99615000I-147500J0D01*
G01*
X93024900Y-99615000D01*
G75*
G02*
X92877400Y-99467500I0J147500D01*
G01*
G37*
G36*
G01*
X99365000Y-105322500D02*
X99365000Y-104977500D01*
G75*
G02*
X99512500Y-104830000I147500J0D01*
G01*
X99807500Y-104830000D01*
G75*
G02*
X99955000Y-104977500I0J-147500D01*
G01*
X99955000Y-105322500D01*
G75*
G02*
X99807500Y-105470000I-147500J0D01*
G01*
X99512500Y-105470000D01*
G75*
G02*
X99365000Y-105322500I0J147500D01*
G01*
G37*
G36*
G01*
X98395000Y-105322500D02*
X98395000Y-104977500D01*
G75*
G02*
X98542500Y-104830000I147500J0D01*
G01*
X98837500Y-104830000D01*
G75*
G02*
X98985000Y-104977500I0J-147500D01*
G01*
X98985000Y-105322500D01*
G75*
G02*
X98837500Y-105470000I-147500J0D01*
G01*
X98542500Y-105470000D01*
G75*
G02*
X98395000Y-105322500I0J147500D01*
G01*
G37*
D10*
X99900000Y-91925000D03*
D11*
X97360000Y-89385000D03*
X102440000Y-89385000D03*
X102440000Y-94465000D03*
X97360000Y-94465000D03*
D12*
X97460000Y-100000000D03*
X100000000Y-102540000D03*
X100000000Y-97460000D03*
G36*
G01*
X99940000Y-106027500D02*
X99940000Y-106372500D01*
G75*
G02*
X99792500Y-106520000I-147500J0D01*
G01*
X99497500Y-106520000D01*
G75*
G02*
X99350000Y-106372500I0J147500D01*
G01*
X99350000Y-106027500D01*
G75*
G02*
X99497500Y-105880000I147500J0D01*
G01*
X99792500Y-105880000D01*
G75*
G02*
X99940000Y-106027500I0J-147500D01*
G01*
G37*
G36*
G01*
X98970000Y-106027500D02*
X98970000Y-106372500D01*
G75*
G02*
X98822500Y-106520000I-147500J0D01*
G01*
X98527500Y-106520000D01*
G75*
G02*
X98380000Y-106372500I0J147500D01*
G01*
X98380000Y-106027500D01*
G75*
G02*
X98527500Y-105880000I147500J0D01*
G01*
X98822500Y-105880000D01*
G75*
G02*
X98970000Y-106027500I0J-147500D01*
G01*
G37*
M02*
