G04 Layer_Color=16711935*
%FSLAX25Y25*%
%MOIN*%
G70*
G01*
G75*
%ADD30R,0.04147X0.04147*%
%ADD32R,0.04147X0.04147*%
%ADD34R,0.06800X0.08800*%
%ADD35C,0.10642*%
%ADD36R,0.06312X0.06312*%
%ADD37C,0.06312*%
%ADD38C,0.03556*%
%ADD39C,0.03202*%
%ADD40R,0.08800X0.06800*%
D30*
X37551Y-13500D02*
D03*
X31449D02*
D03*
X37551Y-9500D02*
D03*
X31449D02*
D03*
X17012Y-17641D02*
D03*
X10909D02*
D03*
X27551Y-4500D02*
D03*
X21449D02*
D03*
X27551Y4000D02*
D03*
X21449D02*
D03*
X27551Y-500D02*
D03*
X21449D02*
D03*
X10909Y-21641D02*
D03*
X17012D02*
D03*
X20949Y-13500D02*
D03*
X27051D02*
D03*
D32*
X36500Y8602D02*
D03*
Y2500D02*
D03*
X32500Y-29551D02*
D03*
Y-23449D02*
D03*
X41000Y8551D02*
D03*
Y2449D02*
D03*
D34*
X0Y33000D02*
D03*
X11000D02*
D03*
D35*
X-16000Y-28500D02*
D03*
X-29445Y-32103D02*
D03*
X-12397Y-41945D02*
D03*
X-2555Y-24897D02*
D03*
X-19603Y-15055D02*
D03*
D36*
X0Y-10000D02*
D03*
D37*
X-10000Y0D02*
D03*
X0Y10000D02*
D03*
D38*
X32000Y4000D02*
D03*
X39500Y-3000D02*
D03*
X-7800Y33500D02*
D03*
X43000Y12500D02*
D03*
X14200Y15000D02*
D03*
X21839D02*
D03*
X5500Y33100D02*
D03*
X6500Y-4000D02*
D03*
D39*
X17100Y-10760D02*
D03*
X46500Y5500D02*
D03*
X-1500Y-38000D02*
D03*
X6000Y-28500D02*
D03*
X12000D02*
D03*
X19000D02*
D03*
X5000Y-38000D02*
D03*
X12000D02*
D03*
X19000D02*
D03*
X4500Y43000D02*
D03*
X30500Y31500D02*
D03*
X-42000Y-13000D02*
D03*
X-45000Y500D02*
D03*
X-36000Y23500D02*
D03*
X-30000Y31000D02*
D03*
X7000Y-24500D02*
D03*
X48000Y-4500D02*
D03*
X41500Y-11000D02*
D03*
D40*
X28000Y26000D02*
D03*
Y15000D02*
D03*
M02*
