G04 Layer_Color=8388736*
%FSLAX25Y25*%
%MOIN*%
G70*
G01*
G75*
%ADD13R,0.02200X0.05800*%
%ADD14R,0.02800X0.07000*%
%ADD30R,0.04147X0.04147*%
%ADD31R,0.03162X0.05131*%
%ADD32R,0.04147X0.04147*%
%ADD33R,0.08300X0.09500*%
%ADD34R,0.06800X0.08800*%
%ADD35C,0.10642*%
%ADD36R,0.06312X0.06312*%
%ADD37C,0.06312*%
%ADD38C,0.03556*%
%ADD39C,0.03202*%
D13*
X14740Y-8600D02*
D03*
X11000D02*
D03*
X7260D02*
D03*
Y-17400D02*
D03*
X11000D02*
D03*
X14740D02*
D03*
D14*
X-10342Y22500D02*
D03*
X-5421D02*
D03*
X-500D02*
D03*
X4421D02*
D03*
X9343D02*
D03*
D30*
X32949Y-7500D02*
D03*
X39051D02*
D03*
X25051Y-18000D02*
D03*
X18949D02*
D03*
X-19949Y0D02*
D03*
X-26051D02*
D03*
D31*
X30260Y-724D02*
D03*
X34000D02*
D03*
X37740D02*
D03*
Y8724D02*
D03*
X30260D02*
D03*
D32*
X30000Y14949D02*
D03*
Y21051D02*
D03*
X11000Y3051D02*
D03*
Y-3051D02*
D03*
X44500Y-7551D02*
D03*
Y-1449D02*
D03*
X37500Y21051D02*
D03*
Y14949D02*
D03*
X-14500Y14051D02*
D03*
Y7949D02*
D03*
X-26500Y16398D02*
D03*
Y22500D02*
D03*
D33*
X18200Y35500D02*
D03*
X-19200D02*
D03*
D34*
X-37500Y8500D02*
D03*
X-26500D02*
D03*
D35*
X-16000Y-28500D02*
D03*
X-29445Y-32103D02*
D03*
X-12397Y-41945D02*
D03*
X-2555Y-24897D02*
D03*
X-19603Y-15055D02*
D03*
D36*
X0Y-10000D02*
D03*
D37*
X-10000Y0D02*
D03*
X0Y10000D02*
D03*
D38*
X32000Y4000D02*
D03*
X39500Y-3000D02*
D03*
X-7800Y33500D02*
D03*
X43000Y12500D02*
D03*
X14200Y15000D02*
D03*
X21839D02*
D03*
X5500Y33100D02*
D03*
X6500Y-4000D02*
D03*
D39*
X17100Y-10760D02*
D03*
X46500Y5500D02*
D03*
X-1500Y-38000D02*
D03*
X6000Y-28500D02*
D03*
X12000D02*
D03*
X19000D02*
D03*
X5000Y-38000D02*
D03*
X12000D02*
D03*
X19000D02*
D03*
X4500Y43000D02*
D03*
X30500Y31500D02*
D03*
X-42000Y-13000D02*
D03*
X-45000Y500D02*
D03*
X-36000Y23500D02*
D03*
X-30000Y31000D02*
D03*
X7000Y-24500D02*
D03*
X48000Y-4500D02*
D03*
X41500Y-11000D02*
D03*
M02*
