G04 Layer_Color=65535*
%FSLAX25Y25*%
%MOIN*%
G70*
G01*
G75*
%ADD17C,0.01000*%
%ADD24C,0.00984*%
%ADD25C,0.02000*%
%ADD26C,0.00787*%
%ADD27C,0.00600*%
%ADD28C,0.00800*%
%ADD29C,0.00300*%
D17*
X8000Y-22501D02*
Y-25834D01*
X8666Y-26500D01*
X9999D01*
X10666Y-25834D01*
Y-22501D01*
X14664Y-26500D02*
X11999D01*
X14664Y-23834D01*
Y-23168D01*
X13998Y-22501D01*
X12665D01*
X11999Y-23168D01*
X-7334Y13832D02*
X-8001Y14499D01*
X-9334D01*
X-10000Y13832D01*
Y11167D01*
X-9334Y10500D01*
X-8001D01*
X-7334Y11167D01*
X-6001Y10500D02*
X-4668D01*
X-5335D01*
Y14499D01*
X-6001Y13832D01*
X-36001Y998D02*
X-37001Y1998D01*
X-39000D01*
X-40000Y998D01*
Y-3000D01*
X-39000Y-4000D01*
X-37001D01*
X-36001Y-3000D01*
X-34002Y998D02*
X-33002Y1998D01*
X-31003D01*
X-30003Y998D01*
Y-1D01*
X-31003Y-1001D01*
X-32003D01*
X-31003D01*
X-30003Y-2001D01*
Y-3000D01*
X-31003Y-4000D01*
X-33002D01*
X-34002Y-3000D01*
X22668Y-11834D02*
X22001Y-12501D01*
Y-13834D01*
X22668Y-14500D01*
X25333D01*
X26000Y-13834D01*
Y-12501D01*
X25333Y-11834D01*
X22001Y-7835D02*
Y-10501D01*
X24001D01*
X23334Y-9168D01*
Y-8502D01*
X24001Y-7835D01*
X25333D01*
X26000Y-8502D01*
Y-9835D01*
X25333Y-10501D01*
X-1001Y36498D02*
X-3001D01*
X-2001D01*
Y31500D01*
X-3001Y30500D01*
X-4000D01*
X-5000Y31500D01*
X998Y30500D02*
X2997D01*
X1998D01*
Y36498D01*
X998Y35498D01*
X10666Y9332D02*
X9999Y9999D01*
X8666D01*
X8000Y9332D01*
Y6667D01*
X8666Y6000D01*
X9999D01*
X10666Y6667D01*
X11999D02*
X12665Y6000D01*
X13998D01*
X14664Y6667D01*
Y9332D01*
X13998Y9999D01*
X12665D01*
X11999Y9332D01*
Y8666D01*
X12665Y7999D01*
X14664D01*
X20001Y-2000D02*
X23334D01*
X24000Y-1333D01*
Y-1D01*
X23334Y666D01*
X20001D01*
X20668Y1999D02*
X20001Y2665D01*
Y3998D01*
X20668Y4665D01*
X21334D01*
X22667Y3332D01*
X23334D02*
X24000D01*
X29999Y-11501D02*
X29500Y-11001D01*
X28500D01*
X28000Y-11501D01*
Y-13500D01*
X28500Y-14000D01*
X29500D01*
X29999Y-13500D01*
X32998Y-14000D02*
X30999D01*
X32998Y-12001D01*
Y-11501D01*
X32499Y-11001D01*
X31499D01*
X30999Y-11501D01*
X33998D02*
X34498Y-11001D01*
X35498D01*
X35997Y-11501D01*
Y-13500D01*
X35498Y-14000D01*
X34498D01*
X33998Y-13500D01*
Y-11501D01*
X24001Y17499D02*
X23501Y16999D01*
Y16000D01*
X24001Y15500D01*
X26000D01*
X26500Y16000D01*
Y16999D01*
X26000Y17499D01*
X26500Y20498D02*
Y18499D01*
X24501Y20498D01*
X24001D01*
X23501Y19999D01*
Y18999D01*
X24001Y18499D01*
X26500Y21498D02*
Y22498D01*
Y21998D01*
X23501D01*
X24001Y21498D01*
X32000Y24500D02*
Y27499D01*
X33500D01*
X33999Y26999D01*
Y26000D01*
X33500Y25500D01*
X32000D01*
X33000D02*
X33999Y24500D01*
X36998D02*
X34999D01*
X36998Y26499D01*
Y26999D01*
X36499Y27499D01*
X35499D01*
X34999Y26999D01*
X37998Y24500D02*
X38998D01*
X38498D01*
Y27499D01*
X37998Y26999D01*
X39000Y-14000D02*
Y-11001D01*
X40499D01*
X40999Y-11501D01*
Y-12501D01*
X40499Y-13000D01*
X39000D01*
X40000D02*
X40999Y-14000D01*
X43998D02*
X41999D01*
X43998Y-12001D01*
Y-11501D01*
X43499Y-11001D01*
X42499D01*
X41999Y-11501D01*
X46997Y-14000D02*
X44998D01*
X46997Y-12001D01*
Y-11501D01*
X46498Y-11001D01*
X45498D01*
X44998Y-11501D01*
X-33000Y26500D02*
Y29499D01*
X-31501D01*
X-31001Y28999D01*
Y27999D01*
X-31501Y27500D01*
X-33000D01*
X-32000D02*
X-31001Y26500D01*
X-30001D02*
X-29001D01*
X-29501D01*
Y29499D01*
X-30001Y28999D01*
X-27502Y26500D02*
X-26502D01*
X-27002D01*
Y29499D01*
X-27502Y28999D01*
X-24500Y-8000D02*
Y-5001D01*
X-23000D01*
X-22501Y-5501D01*
Y-6500D01*
X-23000Y-7000D01*
X-24500D01*
X-23500D02*
X-22501Y-8000D01*
X-21501Y-5501D02*
X-21001Y-5001D01*
X-20001D01*
X-19502Y-5501D01*
Y-6001D01*
X-20501Y-7000D01*
Y-7500D02*
Y-8000D01*
X-5000Y-41001D02*
X-2334D01*
X-3667D01*
Y-45000D01*
X-1001Y-41001D02*
X332D01*
X-335D01*
Y-45000D01*
X-1001D01*
X332D01*
X2331D02*
Y-42334D01*
X3664Y-41001D01*
X4997Y-42334D01*
Y-45000D01*
Y-43001D01*
X2331D01*
X6330Y-42334D02*
X7663Y-45000D01*
X8996Y-42334D01*
X10328Y-41668D02*
X10995Y-41001D01*
X12328D01*
X12994Y-41668D01*
Y-42334D01*
X12328Y-43001D01*
X11661D01*
X12328D01*
X12994Y-43667D01*
Y-44334D01*
X12328Y-45000D01*
X10995D01*
X10328Y-44334D01*
X14327Y-41001D02*
Y-45000D01*
X16326D01*
X16993Y-44334D01*
Y-43667D01*
X16326Y-43001D01*
X14327D01*
X16326D01*
X16993Y-42334D01*
Y-41668D01*
X16326Y-41001D01*
X14327D01*
D24*
X27406Y-724D02*
G03*
X27406Y-724I-492J0D01*
G01*
D25*
X-17550Y22500D02*
G03*
X-17550Y22500I-1500J0D01*
G01*
D26*
X-8913Y-28500D02*
G03*
X-8913Y-28500I-7087J0D01*
G01*
X27898Y3016D02*
Y4984D01*
X40102Y3016D02*
Y4984D01*
X27898Y3016D02*
X40102D01*
X27898Y4984D02*
X40102D01*
X-28709Y-25709D02*
X-24772Y-18890D01*
X-25610Y-37272D02*
X-18791Y-41209D01*
X-7228Y-38110D02*
X-3291Y-31291D01*
X-13209Y-15791D02*
X-6390Y-19728D01*
D27*
X36000Y-9075D02*
Y-5925D01*
X28425Y18000D02*
X31575D01*
X9425Y-0D02*
X12575D01*
X22000Y-19575D02*
Y-16425D01*
X4500Y-16950D02*
Y-9050D01*
X17500Y-16950D02*
Y-9050D01*
X-16550Y22000D02*
Y29840D01*
X15550Y41160D02*
Y45600D01*
X-16550D02*
X15550D01*
X-16550Y41160D02*
Y45600D01*
Y22000D02*
X-13052D01*
X15550D02*
Y29840D01*
X12053Y22000D02*
X15550D01*
X47256Y-9224D02*
Y224D01*
X41744Y-9224D02*
Y224D01*
X34744Y13276D02*
Y22724D01*
X40256Y13276D02*
Y22724D01*
X-16075Y11000D02*
X-12925D01*
X-27724Y2756D02*
X-18276D01*
X-27724Y-2756D02*
X-18276D01*
X-23744Y14724D02*
Y24173D01*
X-29256Y14724D02*
Y24173D01*
D28*
X-41000Y4000D02*
Y13000D01*
X-23000D01*
Y4000D02*
Y13000D01*
X-41000Y4000D02*
X-23000D01*
D29*
X20606Y-6350D02*
X17273Y-9682D01*
Y-6350D02*
X20606Y-9682D01*
X18939Y-6350D02*
Y-9682D01*
X17273Y-8016D02*
X20606D01*
M02*
