M48
;Layer_Color=9474304
;FILE_FORMAT=2:5
INCH,TZ
;TYPE=PLATED
T1F00S00C0.01220
T2F00S00C0.01378
T3F00S00C0.03150
T4F00S00C0.05906
%
T01
X-1500Y-38000
X5000
X12000
X19000
Y-28500
X12000
X6000
X7000Y-24500
X17100Y-10760
X41500Y-11000
X-42000Y-13000
X-45000Y500
X-36000Y23500
X-30000Y31000
X4500Y43000
X30500Y31500
X46500Y5500
X48000Y-4500
T02
X6500Y-4000
X14200Y15000
X21839
X32000Y4000
X39500Y-3000
X43000Y12500
X5500Y33100
X-7800Y33500
T03
X0Y-10000
X-10000Y0
X0Y10000
T04
X-29445Y-32103
X-16000Y-28500
X-12397Y-41945
X-2555Y-24897
X-19603Y-15055
M30
